<svg width="18" height="18" viewBox="0 0 18 18" fill="none" xmlns="http://www.w3.org/2000/svg">
<g clip-path="url(#clip0_34_11675)">
<path d="M5.625 12.9375C6.55664 12.9375 7.3125 13.6934 7.3125 14.625V15.1875L9.86133 13.275C10.1531 13.057 10.5082 12.9375 10.8738 12.9375H15.75C16.0594 12.9375 16.3125 12.6844 16.3125 12.375V2.25C16.3125 1.94062 16.0594 1.6875 15.75 1.6875H2.25C1.94062 1.6875 1.6875 1.94062 1.6875 2.25V12.375C1.6875 12.6844 1.94062 12.9375 2.25 12.9375H5.625ZM7.3125 17.2969L7.30547 17.3039L7.12617 17.4375L6.525 17.8875C6.35625 18.0141 6.12773 18.0352 5.93438 17.9402C5.74102 17.8453 5.625 17.652 5.625 17.4375V16.6887V16.4637V16.4531V16.3125V14.625H3.9375H2.25C1.00898 14.625 0 13.616 0 12.375V2.25C0 1.00898 1.00898 0 2.25 0H15.75C16.991 0 18 1.00898 18 2.25V12.375C18 13.616 16.991 14.625 15.75 14.625H10.8738L7.3125 17.2969Z" fill="#9E00E8"/>
</g>
<defs>
<clipPath id="clip0_34_11675">
<rect width="18" height="18" fill="white"/>
</clipPath>
</defs>
</svg>
