<svg width="86" height="88" viewBox="0 0 86 88" fill="none" xmlns="http://www.w3.org/2000/svg">
<path d="M75.25 13.75C76.7281 13.75 77.9375 14.9875 77.9375 16.5V71.4656L77.0977 70.3484L54.2539 40.0984C53.498 39.0844 52.3055 38.5 51.0625 38.5C49.8195 38.5 48.6438 39.0844 47.8711 40.0984L33.9297 58.5578L28.8066 51.2188C28.0508 50.1359 26.8414 49.5 25.5312 49.5C24.2211 49.5 23.0117 50.1359 22.2559 51.2359L8.81836 70.4859L8.0625 71.5516V71.5V16.5C8.0625 14.9875 9.27188 13.75 10.75 13.75H75.25ZM10.75 5.5C4.8207 5.5 0 10.4328 0 16.5V71.5C0 77.5672 4.8207 82.5 10.75 82.5H75.25C81.1793 82.5 86 77.5672 86 71.5V16.5C86 10.4328 81.1793 5.5 75.25 5.5H10.75ZM24.1875 38.5C25.2463 38.5 26.2947 38.2866 27.2729 37.872C28.2511 37.4574 29.1399 36.8497 29.8885 36.0836C30.6372 35.3175 31.2311 34.4081 31.6363 33.4071C32.0415 32.4062 32.25 31.3334 32.25 30.25C32.25 29.1666 32.0415 28.0938 31.6363 27.0929C31.2311 26.0919 30.6372 25.1825 29.8885 24.4164C29.1399 23.6503 28.2511 23.0426 27.2729 22.628C26.2947 22.2134 25.2463 22 24.1875 22C23.1287 22 22.0803 22.2134 21.1021 22.628C20.1239 23.0426 19.2351 23.6503 18.4865 24.4164C17.7378 25.1825 17.1439 26.0919 16.7387 27.0929C16.3335 28.0938 16.125 29.1666 16.125 30.25C16.125 31.3334 16.3335 32.4062 16.7387 33.4071C17.1439 34.4081 17.7378 35.3175 18.4865 36.0836C19.2351 36.8497 20.1239 37.4574 21.1021 37.872C22.0803 38.2866 23.1287 38.5 24.1875 38.5Z" fill="#9E00E8"/>
</svg>
