<svg width="88" height="88" viewBox="0 0 88 88" fill="none" xmlns="http://www.w3.org/2000/svg">
<g clip-path="url(#clip0_7_10550)">
<path d="M79.75 44C79.75 34.5185 75.9835 25.4254 69.2791 18.7209C62.5746 12.0165 53.4815 8.25 44 8.25C34.5185 8.25 25.4254 12.0165 18.7209 18.7209C12.0165 25.4254 8.25 34.5185 8.25 44C8.25 53.4815 12.0165 62.5746 18.7209 69.2791C25.4254 75.9835 34.5185 79.75 44 79.75C53.4815 79.75 62.5746 75.9835 69.2791 69.2791C75.9835 62.5746 79.75 53.4815 79.75 44ZM0 44C0 32.3305 4.6357 21.1389 12.8873 12.8873C21.1389 4.6357 32.3305 0 44 0C55.6695 0 66.8611 4.6357 75.1127 12.8873C83.3643 21.1389 88 32.3305 88 44C88 55.6695 83.3643 66.8611 75.1127 75.1127C66.8611 83.3643 55.6695 88 44 88C32.3305 88 21.1389 83.3643 12.8873 75.1127C4.6357 66.8611 0 55.6695 0 44ZM52.7141 55.8766L27.9125 65.4156C24.5781 66.7047 21.2953 63.4219 22.5844 60.0875L32.1234 35.2859C32.6906 33.825 33.825 32.6906 35.2859 32.1234L60.0875 22.5844C63.4219 21.2953 66.7047 24.5781 65.4156 27.9125L55.8766 52.7141C55.3266 54.175 54.175 55.3094 52.7141 55.8766ZM49.5 44C49.5 42.5413 48.9205 41.1424 47.8891 40.1109C46.8576 39.0795 45.4587 38.5 44 38.5C42.5413 38.5 41.1424 39.0795 40.1109 40.1109C39.0795 41.1424 38.5 42.5413 38.5 44C38.5 45.4587 39.0795 46.8576 40.1109 47.8891C41.1424 48.9205 42.5413 49.5 44 49.5C45.4587 49.5 46.8576 48.9205 47.8891 47.8891C48.9205 46.8576 49.5 45.4587 49.5 44Z" fill="#9E00E8"/>
</g>
<defs>
<clipPath id="clip0_7_10550">
<rect width="88" height="88" fill="white"/>
</clipPath>
</defs>
</svg>
