<svg width="74" height="84" viewBox="0 0 74 84" fill="none" xmlns="http://www.w3.org/2000/svg">
<g clip-path="url(#clip0_10_10568)">
<path d="M50.2143 21C50.2143 17.519 48.8221 14.1806 46.3439 11.7192C43.8657 9.25781 40.5046 7.875 37 7.875C33.4954 7.875 30.1342 9.25781 27.6561 11.7192C25.1779 14.1806 23.7857 17.519 23.7857 21C23.7857 24.481 25.1779 27.8194 27.6561 30.2808C30.1342 32.7422 33.4954 34.125 37 34.125C40.5046 34.125 43.8657 32.7422 46.3439 30.2808C48.8221 27.8194 50.2143 24.481 50.2143 21ZM15.8571 21C15.8571 15.4305 18.0847 10.089 22.0497 6.15076C26.0148 2.21249 31.3926 0 37 0C42.6074 0 47.9852 2.21249 51.9503 6.15076C55.9153 10.089 58.1429 15.4305 58.1429 21C58.1429 26.5695 55.9153 31.911 51.9503 35.8492C47.9852 39.7875 42.6074 42 37 42C31.3926 42 26.0148 39.7875 22.0497 35.8492C18.0847 31.911 15.8571 26.5695 15.8571 21ZM8.1433 76.125H65.8567C64.3866 65.7398 55.4009 57.75 44.5487 57.75H29.4513C18.5991 57.75 9.61339 65.7398 8.1433 76.125ZM0 79.1273C0 62.9672 13.1813 49.875 29.4513 49.875H44.5487C60.8188 49.875 74 62.9672 74 79.1273C74 81.818 71.8031 84 69.0942 84H4.9058C2.19688 84 0 81.818 0 79.1273Z" fill="#9E00E8"/>
</g>
<defs>
<clipPath id="clip0_10_10568">
<rect width="74" height="84" fill="white"/>
</clipPath>
</defs>
</svg>
