<svg xmlns="http://www.w3.org/2000/svg" viewBox="0 0 3000 3000" id="interface-research"><g data-name="Layer 2"><g data-name="Layer 1"><rect width="3000" height="3000" fill="none"></rect><path fill="none" stroke="#1a1a1a" stroke-linecap="round" stroke-linejoin="round" stroke-width="5.521" d="M1910.84549,2413.61925c-30.5209-71.27063,28.133-205.21149,103.27408-261.57792,92.86759-69.6637,259.70281-13.3489,273.77265-4.58569,5.32006-12.31958,89.73376-198.76042,261.59981-205.71361,132.98658-5.38025,194.38806,41.46635,246.175,217.18711,4.3986-1.94512,70.41513,2.31683,112.9061,46.99089,50.96256,53.5809,46.17638,176.48176-.19271,254.97217H1964.75672C1931.21312,2449.17829,1917.26976,2428.62059,1910.84549,2413.61925Z"></path><path fill="#fff" stroke="#1a1a1a" stroke-linecap="round" stroke-linejoin="round" stroke-width="3.681" d="M2392.03532,2196.409c-104.63021-80.28795-225.09-54.11726-241.49781-50.26113-14.56659-113.26646-95.69552-202.6804-197.36618-221.88355-114.37-21.602-200.931,55.803-210.85095,64.97126-34.27564-70.7632-110.53762-202.9529-259.88592-301.56573-167.10571-110.33769-475.22181-211.331-698.75014-51.48681-119.44627,85.41571-169.55609,213.0031-191.23691,294.21066-143.77842-58.307-309.9361-3.15028-389.82889,128.717-78.91792,130.25815-52.66073,300.69981,62.51975,401.78144H2501.13844C2502.08523,2452.82229,2518.02285,2293.08524,2392.03532,2196.409Z"></path><rect width="1699.066" height="1158.454" x="710.132" y="363.478" fill="#fff" stroke="#1a1a1a" stroke-linecap="round" stroke-linejoin="round" stroke-width="3.681" rx="65.4"></rect><path fill="#1c0311" stroke="#1a1a1a" stroke-linecap="round" stroke-linejoin="round" stroke-width="1.84" d="M2370.50536,494.672a104.81255,104.81255,0,0,0-104.81252-104.81253H853.63653A104.81256,104.81256,0,0,0,748.824,494.672v15.9117H2370.50536Z"></path><path fill="#fff" stroke="#1a1a1a" stroke-linecap="round" stroke-linejoin="round" stroke-width="3.681" d="M748.824,510.5837v880.15522a104.81256,104.81256,0,0,0,104.81253,104.81252H2265.69284a104.81255,104.81255,0,0,0,104.81252-104.81252V510.5837Z"></path><line x1="748.824" x2="2370.505" y1="642.978" y2="642.978" fill="none" stroke="#1a1a1a" stroke-dasharray="22.084" stroke-linecap="round" stroke-linejoin="round" stroke-width="3.681"></line><rect width="165.493" height="47.809" x="1596.441" y="554.715" fill="#1c0311" stroke="#1a1a1a" stroke-linecap="round" stroke-linejoin="round" stroke-width="1.84"></rect><rect width="165.493" height="47.809" x="1820.777" y="554.715" fill="#fff" stroke="#1a1a1a" stroke-linecap="round" stroke-linejoin="round" stroke-width="3.681"></rect><rect width="165.493" height="47.809" x="2045.112" y="554.715" fill="#fff" stroke="#1a1a1a" stroke-linecap="round" stroke-linejoin="round" stroke-width="3.681"></rect><rect width="313.719" height="387.99" x="827.816" y="554.715" fill="#fff" stroke="#1a1a1a" stroke-linecap="round" stroke-linejoin="round" stroke-width="3.681"></rect><rect width="171.862" height="15.743" x="901.346" y="761.967" fill="#fff" stroke="#1a1a1a" stroke-linecap="round" stroke-linejoin="round" stroke-width="3.681"></rect><rect width="221.715" height="15.743" x="876.419" y="807.885" fill="#fff" stroke="#1a1a1a" stroke-linecap="round" stroke-linejoin="round" stroke-width="3.681"></rect><rect width="221.715" height="15.743" x="876.419" y="848.554" fill="#fff" stroke="#1a1a1a" stroke-linecap="round" stroke-linejoin="round" stroke-width="3.681"></rect><circle cx="984.675" cy="657.232" r="54.707" fill="#1c0311" stroke="#1a1a1a" stroke-linecap="round" stroke-linejoin="round" stroke-width="1.84"></circle><rect width="210.873" height="37.189" x="876.419" y="1417.474" fill="#1c0311" stroke="#1a1a1a" stroke-linecap="round" stroke-linejoin="round" stroke-width="1.84"></rect><path fill="#1c0311" stroke="#1a1a1a" stroke-linecap="round" stroke-linejoin="round" stroke-width="1.84" d="M2252.89829,1495.55143H1206.612v-78.07728H2367.0592C2345.6151,1479.718,2302.93342,1495.652,2252.89829,1495.55143Z"></path><line x1="1206.612" x2="1206.612" y1="510.584" y2="1495.551" fill="none" stroke="#1a1a1a" stroke-dasharray="22.084" stroke-linecap="round" stroke-linejoin="round" stroke-width="3.681"></line><rect width="255.647" height="254.357" x="1270.971" y="748.71" fill="none" stroke="#1a1a1a" stroke-dasharray="22.084" stroke-linecap="round" stroke-linejoin="round" stroke-width="3.681"></rect><rect width="255.647" height="254.357" x="1634.111" y="748.71" fill="none" stroke="#1a1a1a" stroke-dasharray="22.084" stroke-linecap="round" stroke-linejoin="round" stroke-width="3.681"></rect><rect width="255.647" height="254.357" x="1997.251" y="748.71" fill="none" stroke="#1a1a1a" stroke-dasharray="22.084" stroke-linecap="round" stroke-linejoin="round" stroke-width="3.681"></rect><rect width="255.647" height="254.357" x="1270.971" y="1082.559" fill="none" stroke="#1a1a1a" stroke-dasharray="22.084" stroke-linecap="round" stroke-linejoin="round" stroke-width="3.681"></rect><rect width="255.647" height="254.357" x="1634.111" y="1082.559" fill="none" stroke="#1a1a1a" stroke-dasharray="22.084" stroke-linecap="round" stroke-linejoin="round" stroke-width="3.681"></rect><rect width="255.647" height="254.357" x="1997.251" y="1082.559" fill="none" stroke="#1a1a1a" stroke-dasharray="22.084" stroke-linecap="round" stroke-linejoin="round" stroke-width="3.681"></rect><path fill="#fff" stroke="#1a1a1a" stroke-linecap="round" stroke-linejoin="round" stroke-width="3.681" d="M1510.73505,983.68245c-71.57249,4.08371-158.087-2.31648-179.07777-21.64672s-24.22918-29.90517-30.28782-58.21656c-8.44583-39.46647-11.00971-89.55425-12.34974-141.852l221.71533,0Z"></path><path fill="#fff" stroke="#1a1a1a" stroke-linecap="round" stroke-linejoin="round" stroke-width="3.681" d="M1299.63444 895.10559c8.64683 36.056 58.26134 36.75586 58.26134 36.75586s1.00556 30.62184 23.74 47.08214M1872.79209 983.68245c-71.57249 4.08371-158.087-2.31648-179.07778-21.64672s-24.22917-29.90517-30.28781-58.21656c-8.44583-39.46647-11.00971-89.55425-12.34974-141.852l221.71533 0z"></path><path fill="#fff" stroke="#1a1a1a" stroke-linecap="round" stroke-linejoin="round" stroke-width="3.681" d="M1661.69147 895.10559c8.64684 36.056 58.26135 36.75586 58.26135 36.75586s1.00555 30.62184 23.74 47.08214M2234.84913 983.68245c-71.5725 4.08371-158.087-2.31648-179.07778-21.64672s-24.22918-29.90517-30.28782-58.21656c-8.44582-39.46647-11.00971-89.55425-12.34973-141.852l221.71532 0z"></path><path fill="#fff" stroke="#1a1a1a" stroke-linecap="round" stroke-linejoin="round" stroke-width="3.681" d="M2023.74851 895.10559c8.64684 36.056 58.26134 36.75586 58.26134 36.75586s1.00556 30.62184 23.74 47.08214M1510.73505 1320.00793c-71.57249 4.08371-158.087-2.31648-179.07777-21.64672s-24.22918-29.90517-30.28782-58.21656c-8.44583-39.46647-11.00971-89.55425-12.34974-141.852l221.71533 0z"></path><path fill="#fff" stroke="#1a1a1a" stroke-linecap="round" stroke-linejoin="round" stroke-width="3.681" d="M1299.63444 1231.43107c8.64683 36.056 58.26134 36.75586 58.26134 36.75586s1.00556 30.62184 23.74 47.08214M1872.79209 1320.00793c-71.57249 4.08371-158.087-2.31648-179.07778-21.64672s-24.22917-29.90517-30.28781-58.21656c-8.44583-39.46647-11.00971-89.55425-12.34974-141.852l221.71533 0z"></path><path fill="#fff" stroke="#1a1a1a" stroke-linecap="round" stroke-linejoin="round" stroke-width="3.681" d="M1661.69147 1231.43107c8.64684 36.056 58.26135 36.75586 58.26135 36.75586s1.00555 30.62184 23.74 47.08214M2234.84913 1320.00793c-71.5725 4.08371-158.087-2.31648-179.07778-21.64672s-24.22918-29.90517-30.28782-58.21656c-8.44582-39.46647-11.00971-89.55425-12.34973-141.852l221.71532 0z"></path><path fill="#fff" stroke="#1a1a1a" stroke-linecap="round" stroke-linejoin="round" stroke-width="3.681" d="M2023.74851,1231.43107c8.64684,36.056,58.26134,36.75586,58.26134,36.75586s1.00556,30.62184,23.74,47.08214"></path><line x1="107" x2="2762.25" y1="2460.892" y2="2460.892" fill="#fff" stroke="#1a1a1a" stroke-linecap="round" stroke-linejoin="round" stroke-width="3.681"></line><path fill="#fff" stroke="#1a1a1a" stroke-linecap="round" stroke-linejoin="round" stroke-width="3.681" d="M2187.92681,1620.5532c14.09763-28.80821,8.5811-47.19632-11.64578-43.51868s-139.7501,57.61619-152.00884,71.71382c-7.56815,8.70331.7491,48.12188,8.22244,77.01737.69956-.35349,1.396-.68081,2.08117-.95488,25.33173-7.91613,51.68541-14.12043,78.18139-17.02033-1.38452-5.38893-2.81554-11.03912-4.22983-16.7494C2112.48761,1683.073,2173.82919,1649.3613,2187.92681,1620.5532Z"></path><path fill="#1c0311" stroke="#1a1a1a" stroke-linecap="round" stroke-linejoin="round" stroke-width="1.84" d="M2032.49463,1725.76571c4.63185,17.90916,8.93987,31.77921,8.93987,31.77921l81.52083-11.33936s-4.73081-17.13558-10.19814-38.41506c-26.496,2.8999-52.84966,9.1042-78.18139,17.02033C2033.89061,1725.0849,2033.19419,1725.41222,2032.49463,1725.76571Z"></path><path fill="#fff" stroke="#1a1a1a" stroke-linecap="round" stroke-linejoin="round" stroke-width="3.681" d="M2078.21078,2196.10261s-72.32676-94.39256-42.9057-446.21936c1.22587-17.16228,46.58334-30.64693,84.58553-30.64693,35.55045,50.261,117.68423,381.24786,121.36186,427.8312s-12.25877,105.61668-15.9364,105.52106S2078.21078,2196.10261,2078.21078,2196.10261Z"></path><path fill="none" stroke="#1a1a1a" stroke-dasharray="22.084" stroke-linecap="round" stroke-linejoin="round" stroke-width="3.681" d="M2077.725,1774.11735s64.702,437.47332,106.68359,485.05744"></path><path fill="#1c0311" stroke="#1a1a1a" stroke-linecap="round" stroke-linejoin="round" stroke-width="1.84" d="M2485.87712,1786.87353c-4.80955,7.29205-7.676,12.04477-7.676,12.04477s57.87488,49.64805,59.71364,49.64805c1.38857,0,14.31071-22.71051,26.36255-33.83634C2545.83271,1792.02466,2516.29742,1779.24821,2485.87712,1786.87353Z"></path><path fill="#fff" stroke="#1a1a1a" stroke-linecap="round" stroke-linejoin="round" stroke-width="3.681" d="M2711.37642,1816.69357c-15.93639-19.00108-113.39361-105.42548-146.49231-106.03844-25.44945-.47132-63.00534,51.95746-79.007,76.2184,30.4203-7.62532,59.95559,5.15113,78.40021,27.85648,3.90791-3.60767,7.725-6.0047,11.02676-6.0047,13.48466,0,52.71274,33.0987,101.13487,45.35745S2727.31282,1835.69464,2711.37642,1816.69357Z"></path><path fill="#fff" stroke="#1a1a1a" stroke-linecap="round" stroke-linejoin="round" stroke-width="3.681" d="M2485.20205,1794.01484c-246.40138,170.39685-278.27416,420.79712-278.27416,420.79712s-145.87936-61.615-279.5-76.32556-280.726,88.67147-280.726,88.67147l.62093,14.79842,9.18609,218.93591h312.59877c52.71274,0,297.8882,22.06565,349.375-46.58359,51.48681-68.649,236.59435-570.03287,236.59435-581.06569S2540.36651,1792.78892,2485.20205,1794.01484Z"></path><path fill="none" stroke="#1a1a1a" stroke-dasharray="22.084" stroke-linecap="round" stroke-linejoin="round" stroke-width="3.681" d="M1756.721,2347.4286s377.83442-26.2385,473.60495,0c74.77973-150.87138,231.54258-469.15184,290.91328-512.04807"></path><path fill="#1c0311" stroke="#1a1a1a" stroke-linecap="round" stroke-linejoin="round" stroke-width="1.84" d="M1651.767,2245.75441s11.15137-18.29569,34.11006,27.914,38.70178,157.22915-3.93578,190.60236l-32.80208-2.34762Z"></path><path fill="#54cafa" stroke="#1a1a1a" stroke-linecap="round" stroke-linejoin="round" stroke-width="3.681" d="M929.00986,2324.08624s123.13706-120.78775,149.95128-164.17c27.50449-27.42146,10.80285-122.80188,100.54534-133.6993,0,0,100.85286-32.498,291.06319,77.782,156.55807,96.88419,186.55813,134.34709,200.32493,156.80763s47.50936,131.54544-7.72563,200.89095c-182.96511,3.52956-475.64407-14.07412-513.71333-15.0276"></path><path fill="#fff" stroke="#1a1a1a" stroke-linecap="round" stroke-linejoin="round" stroke-width="3.681" d="M937.53506,2096.787s25.452-39.03468,4.15464-65.79906-34.334-61.8287-21.04382-82.5951,34.75055-20.99866,47.15968-1.8584,72.04722,84.87912,49.22309,112.76877S973.643,2130.9421,973.643,2130.9421Z"></path><path fill="#54cafa" stroke="#1a1a1a" stroke-linecap="round" stroke-linejoin="round" stroke-width="3.681" d="M995.33457,2361.03783c-81.671-29.44594-18.49338-200.77787-12.28272-222.18541s-29.7783-39.61859-38.09028-48.18555-16.84274.66371-16.84274.66371S753.84237,2315.34694,780.249,2401.71789s259.66018,51.41581,259.66018,51.41581,133.957,10.78145,140.76579,5.9196,0-60.6942,0-60.6942"></path><path fill="#fff" stroke="#1a1a1a" stroke-linecap="round" stroke-linejoin="round" stroke-width="3.681" d="M1001.41891,1818.84644s-72.69629,101.011-41.19233,184.42074,126.56866,20.77576,126.56866,20.77576"></path><path fill="#fff" stroke="#1a1a1a" stroke-linecap="round" stroke-linejoin="round" stroke-width="3.681" d="M1057.10325,2038.69237s18.7589,106.73432,37.18,132.275c64.23013,14.64451,94.66649-60.778,92.92279-136.15929-26.42338-16.74776-50.90971-77.73769-50.90971-77.73769"></path><polygon fill="#1c0311" stroke="#1a1a1a" stroke-linecap="round" stroke-linejoin="round" stroke-width="1.84" points="1082.556 2026.171 1058.449 2050.442 1057.103 2037.814 1082.556 2026.171"></polygon><path fill="#1c0311" stroke="#1a1a1a" stroke-linecap="round" stroke-linejoin="round" stroke-width="1.84" d="M996.5111,1729.328c-10.11544-3.74193-58.78838,92.02851,29.13774,128.43558,25.71437,14.322,33.57985,11.55843,25.657,28.43283s-6.11138,33.97862,4.74789,36.00435,29.31467-12.19665,36.89053-22.30982,33.42894,7.72877,28.61371,25.63174-23.18161,26.60113-22.29159,33.62032c9.97134,19.543,15.03091,38.97291,55.03112,26.66188s36.87017-83.95716,31.98409-106.76766-15.97218-62.859-74.15918-76.20809S1006.62654,1733.06991,996.5111,1729.328Z"></path><path fill="#fff" stroke="#1a1a1a" stroke-linecap="round" stroke-linejoin="round" stroke-width="3.681" d="M1042.69018,2397.45485c-35.34038,13.81423-60.0313,63.08262-42.94492,64.70977,12.07745,1.14976,72.12178.80155,106.29206.49872-2.94034-24.334-7.98431-47.8304-22.83844-68.2889C1071.36158,2392.0866,1057.102,2391.82129,1042.69018,2397.45485Z"></path><path fill="#54cafa" stroke="#1a1a1a" stroke-linecap="round" stroke-linejoin="round" stroke-width="3.681" d="M1323.54227 2108.87264s243.38136 175.35359 212.48945 278.70444-393.90852 74.82625-407.71976 74.58743c-14.31807-13.10055-37.69185-91.99986-28.10965-97.8982s163.40248-1.83854 175.75738-15.2071 16.65874-20.89915-25.21195-56.054-88.52481-121.64807-17.64943-167.68674c19.11158-5.35374 23.70505-5.53475 23.70505-5.53475M1083.89631 2206.34125s-16.23171 62.5945 11.511 105.66709"></path><path fill="#1c0311" stroke="#1a1a1a" stroke-linecap="round" stroke-linejoin="round" stroke-width="3.681" d="M1112.46807,2405.28641a93.90493,93.90493,0,0,0-29.26919-10.912c14.85413,20.4585,19.8981,43.95495,22.83844,68.2889,14.17143-.1258,23.89836-.24352,23.89836-.24352S1119.40865,2408.92508,1112.46807,2405.28641Z"></path><rect width="253.757" height="34.325" x="472.311" y="2424.729" fill="#1c0311" stroke="#1a1a1a" stroke-linecap="round" stroke-linejoin="round" stroke-width="1.84"></rect><path fill="#fff" stroke="#1a1a1a" stroke-linecap="round" stroke-linejoin="round" stroke-width="3.681" d="M376.47777,2192.8489c1.83871,3.67774,119.73835,219.46786,119.73835,219.46786l-25.13059,10.8797L353.40142,2208.10252Z"></path><circle cx="472.311" cy="1209.738" r="135.353" fill="#fff" stroke="#1a1a1a" stroke-linecap="round" stroke-linejoin="round" stroke-width="3.681"></circle><path fill="#1c0311" stroke="#1a1a1a" stroke-linecap="round" stroke-linejoin="round" stroke-width="1.84" d="M492.21421,1182.10977a31.705,31.705,0,1,0-31.92018,0,64.3093,64.3093,0,0,0-48.32419,62.28488v31.049H540.53839v-31.049A64.3093,64.3093,0,0,0,492.21421,1182.10977Z"></path><circle cx="2580.61" cy="1067.88" r="62.972" fill="#1c0311" stroke="#1a1a1a" stroke-linecap="round" stroke-linejoin="round" stroke-width="1.84"></circle><circle cx="2652.538" cy="1290.879" r="127.029" fill="#fff" stroke="#1a1a1a" stroke-linecap="round" stroke-linejoin="round" stroke-width="3.681"></circle><path fill="#fff" stroke="#1a1a1a" stroke-linecap="round" stroke-linejoin="round" stroke-width="3.681" d="M494.16013,771.86331H228.26659a46.37826,46.37826,0,0,0-46.37825,46.37826v55.84819A46.37826,46.37826,0,0,0,228.26659,920.468H440.61507c9.316,13.54754,25.03757,35.65587,38.61988,54.64024,6.8677,9.59917,22.00116,3.72783,20.61057-7.9929L494.31065,920.464a46.37517,46.37517,0,0,0,46.22774-46.37421V818.24157A46.37826,46.37826,0,0,0,494.16013,771.86331Z"></path><rect width="237.458" height="20.991" x="236.086" y="801.973" fill="#fff" stroke="#1a1a1a" stroke-linecap="round" stroke-linejoin="round" stroke-width="3.681"></rect><rect width="237.458" height="20.991" x="236.086" y="854.898" fill="#fff" stroke="#1a1a1a" stroke-linecap="round" stroke-linejoin="round" stroke-width="3.681"></rect><path fill="#1c0311" stroke="#1a1a1a" stroke-linecap="round" stroke-linejoin="round" stroke-width="1.84" d="M1043.73178,1298.93222v-19.945h-20.57666a36.74718,36.74718,0,0,0-3.45647-8.348l14.548-14.5479-14.10581-14.10592-14.548,14.54812a36.74191,36.74191,0,0,0-8.348-3.45657V1232.5094H977.309V1253.077a36.74191,36.74191,0,0,0-8.348,3.45657l-14.548-14.54812-14.10581,14.10592,14.548,14.5479a36.74718,36.74718,0,0,0-3.45647,8.348H930.82211v19.945h20.57666a36.743,36.743,0,0,0,3.45647,8.348l-14.548,14.548L954.413,1335.934l14.548-14.548a36.74164,36.74164,0,0,0,8.348,3.45647v20.56762h19.93587v-20.56762a36.74164,36.74164,0,0,0,8.348-3.45647l14.548,14.548,14.10581-14.10581-14.548-14.548a36.743,36.743,0,0,0,3.45647-8.348Zm-39.18585,0a19.94852,19.94852,0,0,1-7.30105,7.30105,19.46227,19.46227,0,0,1-4.81025,1.99456,20.02339,20.02339,0,0,1-10.3244,0,19.39914,19.39914,0,0,1-4.80122-1.99456,20.04978,20.04978,0,0,1-9.30459-12.11136,20.23419,20.23419,0,0,1-.66783-5.16217,19.8444,19.8444,0,0,1,.67686-5.16218,19.4663,19.4663,0,0,1,1.99451-4.8103,20.01643,20.01643,0,0,1,7.301-7.30094,19.39955,19.39955,0,0,1,4.80122-1.99457,20.02367,20.02367,0,0,1,10.3244,0,19.46268,19.46268,0,0,1,4.81025,1.99457,20.01643,20.01643,0,0,1,7.30105,7.30094,19.4663,19.4663,0,0,1,1.99451,4.8103,19.8444,19.8444,0,0,1,.67686,5.16218,20.23419,20.23419,0,0,1-.66783,5.16217A19.837,19.837,0,0,1,1004.54593,1298.93222Z"></path></g></g></svg>