<svg xmlns="http://www.w3.org/2000/svg" viewBox="0 0 3000 3000" id="web-content-design"><g data-name="Layer 2"><g data-name="Layer 1"><rect width="3000" height="3000" fill="none"></rect><path fill="none" stroke="#1a1a1a" stroke-linecap="round" stroke-linejoin="round" stroke-width="6.129" d="M287.8428,1939.097c95.6172-105.71759,292.817-87.16972,450.0547-4.36959,163.46884-319.84508,509.79829-413.49684,703.4841-292.75416,128.97805,80.40384,192.973,257.56554,179.148,441.316,17.05135.72278,72.20738,5.241,117.97578,48.06393,73.824,69.07385,53.76634,172.823,52.43351,179.14847,94.95566-210.26579,343.05426-294.70352,528.70522-200.99539,162.92164,82.23547,247.26011,286.2766,183.51755,476.27171H397.07492C314.05954,2585.92964-22.38931,2282.1,287.8428,1939.097Z"></path><polygon fill="#fff" stroke="#1a1a1a" stroke-linecap="round" stroke-linejoin="round" stroke-width="4.086" points="1850.795 1777.572 1805.412 1685.707 1784.841 1695.129 1831.794 1787.936 1850.795 1777.572"></polygon><path fill="#fff" stroke="#1a1a1a" stroke-linecap="round" stroke-linejoin="round" stroke-width="4.086" d="M1828.81015,1820.59955s40.2007,66.5824,38.31629,82.91394-25.75357,11.93458-25.75357,11.93458-32.03494-59.67291-45.85393-90.45157,21.35663-37.68816,21.35663-37.68816l36.43188-19.47221s97.9892,197.86281,103.64243,211.6818l-44.59765,13.19086-46.15071-85.51453"></path><path fill="#fff" stroke="#1a1a1a" stroke-linecap="round" stroke-linejoin="round" stroke-width="4.086" d="M1848.9105 1791.07716s-5.65323 3.76881-15.07526 9.422-5.02509 20.10035-5.02509 20.10035M1962.6031 1630.27436l-5.65322 337.93713s97.36107 13.19085 98.61734 0 15.7034-334.79645 15.7034-334.79645z"></path><polygon fill="#1c0311" stroke="#1a1a1a" stroke-linecap="round" stroke-linejoin="round" stroke-width="2.043" points="1953.181 1697.485 2077.552 1701.882 2071.271 1819.343 1950.669 1819.343 1953.181 1697.485"></polygon><polygon fill="#1c0311" stroke="#1a1a1a" stroke-linecap="round" stroke-linejoin="round" stroke-width="2.043" points="2173.029 1685.707 2159.21 1630.274 2182.451 1571.858 2245.264 1527.26 2255.943 1529.773 2267.877 1598.239 2243.38 1666.706 2206.32 1693.088 2173.029 1685.707"></polygon><line x1="2236.47" x2="2189.36" y1="1569.345" y2="1693.088" fill="none" stroke="#fff" stroke-linecap="round" stroke-linejoin="round" stroke-width="6.129"></line><polygon fill="#fff" stroke="#1a1a1a" stroke-linecap="round" stroke-linejoin="round" stroke-width="4.086" points="2164.863 1679.269 2077.552 1970.724 2124.034 1974.074 2218.254 1685.707 2164.863 1679.269"></polygon><path fill="#fff" stroke="#1a1a1a" stroke-linecap="round" stroke-linejoin="round" stroke-width="4.086" d="M2153.08532,1976.37726l88.09606-208.54113,71.6075,22.45586,25.4395,36.37954-57.00333,130.86165s-20.25738-7.53763-19.78628-8.95094,40.51476-89.98047,40.51476-89.98047l-11.74571-16.444-67.55645,143.64152"></path><line x1="2312.789" x2="2290.208" y1="1790.292" y2="1842.158" fill="#fff" stroke="#1a1a1a" stroke-linecap="round" stroke-linejoin="round" stroke-width="4.086"></line><polygon fill="#fff" stroke="#1a1a1a" stroke-linecap="round" stroke-linejoin="round" stroke-width="4.086" points="1823.785 2004.643 1874.036 2439.313 2181.823 2439.313 2227.048 2004.643 1823.785 2004.643"></polygon><rect width="466.077" height="54.02" x="1784.841" y="1965.699" fill="#fff" stroke="#1a1a1a" stroke-linecap="round" stroke-linejoin="round" stroke-width="4.086"></rect><path fill="#fff" stroke="#1a1a1a" stroke-linecap="round" stroke-linejoin="round" stroke-width="4.086" d="M501.21832,2585.778l1939.71018-.73683c35.64209-185.2849-62.83832-356.10142-197.863-401.37942-164.6262-55.20432-393.60861,72.84273-429.64437,310.92733-16.22312-32.52821-48.62872-53.47217-83.85648-54.01944-46.03114-.71506-73.59587,33.755-76.6323,37.68789-10.32386-133.865-99.19611-247.74052-222.36034-286.43-139.10985-43.69879-295.82326,16.72845-374.36906,148.24045C929.71379,2167.753,702.36609,2144.1372,578.8198,2248.36,488.66587,2324.4128,456.061,2452.66942,501.21832,2585.778Z"></path><path fill="#fff" stroke="#1a1a1a" stroke-linecap="round" stroke-linejoin="round" stroke-width="4.086" d="M526.07121,2585.15612H1823.78506s17.40273,149.44046-594.32246,146.99062S526.07121,2585.15612,526.07121,2585.15612Z"></path><line x1="65" x2="2927" y1="2585.778" y2="2585.778" fill="none" stroke="#1a1a1a" stroke-linecap="round" stroke-linejoin="round" stroke-width="6.129"></line><path fill="#fff" stroke="#1a1a1a" stroke-linecap="round" stroke-linejoin="round" stroke-width="4.086" d="M663.71016,402.89654a115.61993,115.61993,0,0,0-.72022,12.7201v918.64854a114.47767,114.47767,0,0,0,114.47765,114.47765H2091.84217a114.47768,114.47768,0,0,0,114.47765-114.47765V415.61664a115.62047,115.62047,0,0,0-.71958-12.7201Z"></path><path fill="#1c0311" stroke="#1a1a1a" stroke-linecap="round" stroke-linejoin="round" stroke-width="2.043" d="M2091.84217,301.139H777.46759A114.47936,114.47936,0,0,0,663.71016,402.89654H2205.60024A114.48047,114.48047,0,0,0,2091.84217,301.139Z"></path><rect width="633.578" height="847.984" x="770.401" y="507.481" fill="#fff" stroke="#1a1a1a" stroke-linecap="round" stroke-linejoin="round" stroke-width="4.086"></rect><rect width="473.403" height="847.984" x="1501.135" y="507.481" fill="#fff" stroke="#1a1a1a" stroke-linecap="round" stroke-linejoin="round" stroke-width="4.086"></rect><line x1="2040.492" x2="2040.492" y1="402.897" y2="1448.743" fill="#fff" stroke="#1a1a1a" stroke-linecap="round" stroke-linejoin="round" stroke-width="4.086"></line><circle cx="2122.464" cy="524.441" r="23.555" fill="#fff" stroke="#1a1a1a" stroke-linecap="round" stroke-linejoin="round" stroke-width="4.086"></circle><circle cx="2122.464" cy="714.453" r="23.555" fill="#fff" stroke="#1a1a1a" stroke-linecap="round" stroke-linejoin="round" stroke-width="4.086"></circle><circle cx="2122.464" cy="904.465" r="23.555" fill="#fff" stroke="#1a1a1a" stroke-linecap="round" stroke-linejoin="round" stroke-width="4.086"></circle><circle cx="2122.464" cy="1094.477" r="23.555" fill="#1c0311" stroke="#1a1a1a" stroke-linecap="round" stroke-linejoin="round" stroke-width="2.043"></circle><rect width="240.262" height="21.671" x="1680.57" y="565.898" fill="#fff" stroke="#1a1a1a" stroke-linecap="round" stroke-linejoin="round" stroke-width="4.086"></rect><rect width="349.857" height="21.671" x="1570.372" y="643.741" fill="#fff" stroke="#1a1a1a" stroke-linecap="round" stroke-linejoin="round" stroke-width="4.086"></rect><rect width="349.857" height="21.671" x="1570.372" y="714.453" fill="#fff" stroke="#1a1a1a" stroke-linecap="round" stroke-linejoin="round" stroke-width="4.086"></rect><rect width="349.857" height="21.671" x="1570.372" y="785.166" fill="#fff" stroke="#1a1a1a" stroke-linecap="round" stroke-linejoin="round" stroke-width="4.086"></rect><rect width="349.857" height="21.671" x="1570.372" y="855.878" fill="#fff" stroke="#1a1a1a" stroke-linecap="round" stroke-linejoin="round" stroke-width="4.086"></rect><polygon fill="#1c0311" stroke="#1a1a1a" stroke-linecap="round" stroke-linejoin="round" stroke-width="2.043" points="1540.182 446.238 1540.182 470.735 1590.59 470.735 1590.59 587.569 1617.914 587.569 1617.914 470.735 1668.322 470.735 1668.322 446.238 1540.182 446.238"></polygon><path fill="#fff" stroke="#1a1a1a" stroke-linecap="round" stroke-linejoin="round" stroke-width="4.086" d="M1235.6928 1110.6459s51.50715 247.74931 129.396 266.59339 146.98381-94.43383 146.98381-94.43383l-31.4068-7.32419-38.00222 5.02509c-48.0524 18.84408-104.58463-81.02954-117.77549-194.094s-99.87361-147.926-99.87361-147.926M793.01412 2506.838c-5.58619-9.57618-.80808-26.96074 4.411-40.285-28.04415 1.5947-54.19232-3.128-75.13091-24.106-17.8285 30.86143-49.513 90.56162-40.93143 111.50121 11.77792 28.737 137.56209 80.08759 171.95212 84.32749 34.39052 4.23989 48.05245-12.71968 37.68816-26.38212C880.63874 2598.2321 805.26242 2517.67313 793.01412 2506.838z"></path><path fill="#1c0311" stroke="#1a1a1a" stroke-linecap="round" stroke-linejoin="round" stroke-width="2.043" d="M797.4251 2466.553a176.92113 176.92113 0 018.3087-18.13178l-72.07869-24.96848s-4.72174 7.50162-11.36092 18.99423C743.23278 2463.42494 769.381 2468.14768 797.4251 2466.553zM1382.064 2517.91705c-5.34276-13.03593-9.90888-24.5839-9.90888-24.5839l-75.37632 21.35659s2.90308 10.94491 7.318 26.638C1331.32544 2543.47762 1356.90746 2531.35851 1382.064 2517.91705z"></path><path fill="#fff" stroke="#1a1a1a" stroke-linecap="round" stroke-linejoin="round" stroke-width="4.086" d="M1549.28987 2648.48282c-3.141-23.2411-61.55726-50.87922-96.73341-68.4668-35.17515-17.58807-50.25072-20.10059-54.64774-26.38161-2.36436-3.378-9.63-20.55451-15.84473-35.71736-25.15653 13.44146-50.73855 25.56057-77.96715 23.41069 9.8176 34.89632 27.11936 93.28963 36.65164 107.15508C1354.56753 2668.5829 1552.43039 2671.72392 1549.28987 2648.48282zM1274.16613 1325.0003s14.44712 30.15053 11.30644 85.42649-43.34138 265.07336-119.974 414.56971S853.31506 2449.99174 815.6269 2458.78565s-100.50175-31.4068-94.22039-45.85393 234.30391-623.11083 276.38441-745.59734 81.65307-312.81169 81.65307-312.81169"></path><path fill="#fff" stroke="#1a1a1a" stroke-linecap="round" stroke-linejoin="round" stroke-width="4.086" d="M1195.021,1465.07461c3.76882,15.07526-1.88441,27.638-5.02509,63.44173s50.879,307.7866,62.18546,361.80629,143.215,563.12386,150.75262,585.42269-26.69578,44.28358-70.97936,51.19307-56.53223-19.78628-62.81359-31.09272S898.54084,1647.5481,885.35,1542.02126c-9.64116-77.12928,13.93783-148.38631,27.32634-181.15181,4.9294-12.06365,8.47741-18.90948,8.47741-18.90948l261.93268,18.21594"></path><path fill="#1c0311" stroke="#1a1a1a" stroke-linecap="round" stroke-linejoin="round" stroke-width="2.043" d="M925.05649,1360.38568s6.6711,26.65991,125.37492,43.69465,157.18386-14.508,195.7808-23.6266c0,0,38.79755-21.40711,36.64356-28.07874l-8.68964-27.37469L921.15374,1341.96l-4.208,8.91356Z"></path><path fill="#54cafa" stroke="#1a1a1a" stroke-linecap="round" stroke-linejoin="round" stroke-width="4.086" d="M1225.01449,910.66514s36.74595,1.96393,73.0208,62.265,41.92807,109.76676,42.39918,111.18006,1.8844,10.83535-13.19086,18.373-41.457,22.14179-41.457,22.14179"></path><path fill="#54cafa" stroke="#1a1a1a" stroke-linecap="round" stroke-linejoin="round" stroke-width="4.086" d="M1159.84539,867.08921s55.9041,13.819,76.00445,45.85392,65.95427,107.09718,58.41664,247.48556-11.30645,169.5967-11.30645,169.5967-16.01747,41.457-78.20292,51.82121-186.55637,33.91934-277.008-27.32391c-13.19085-12.24865-36.74595-17.90187-9.422-111.18006S985.2236,960.68146,985.2236,960.68146l47.73833-72.23563"></path><path fill="#fff" stroke="#1a1a1a" stroke-linecap="round" stroke-linejoin="round" stroke-width="4.086" d="M1176.17692,786.05968c-8.7939,15.70339-13.19085,71.60749,0,102.38615-36.43188,38.31629-119.974,19.47222-143.215,0,59.04478-60.92918,59.67291-141.95872,59.67291-141.95872s-41.1429-90.1375,11.93459-117.46141,118.08955,0,118.08955,0,23.5551,23.55509,16.01747,85.26945c-5.78412,47.35747-19.31518,72.07859-45.22579,72.07859s-38.6751-2.61361-46.63909-5.65322"></path><path fill="#1c0311" stroke="#1a1a1a" stroke-linecap="round" stroke-linejoin="round" stroke-width="2.043" d="M1125.29791,708.17082s8.16577,56.53224-14.44712,74.74818-27.00985,20.72848-47.73833,16.33153-57.78851-4.37178-59.04478-35.47709,8.47983-54.03228,31.09273-66.90906c0,0-26.38171-22.6129-10.67831-63.44173s47.73833-32.97714,47.73833-32.97714-6.28136-42.39917,51.19307-64.38393,129.396,13.819,129.71007,94.22039c-4.397,23.241-14.76119,25.12543-14.76119,25.12543s-72.86377-21.35662-89.82344.31407c-6.28136,10.67831-6.28136,8.70154-9.108,9.68992s-27.952-41.72485-48.36647-9.68992S1125.29791,708.17082,1125.29791,708.17082Z"></path><polygon fill="#fff" stroke="#1a1a1a" stroke-linecap="round" stroke-linejoin="round" stroke-width="4.086" points="1414.869 978.583 1269.769 1245.227 1434.655 1339.257 1577.87 1082.226 1414.869 978.583"></polygon><path fill="#fff" stroke="#1a1a1a" stroke-linecap="round" stroke-linejoin="round" stroke-width="4.086" d="M909.84729,1179.27277s-2.80778,145.5705,84.79835,158.29025c95.65648,13.8886,207.28486-59.67291,277.63608-145.0994,30.15052,4.397,62.81359,15.38933,76.31851,6.28136s21.35663-20.10035,5.33916-32.97714-41.21275-29.17659-68.15275-27.952c-20.72848.94221-34.86154-1.57033-67.21054,27.952,0,0-81.65767,63.91049-127.82566,72.8626s-55.61088-55.59089-54.64783-66.89531"></path><path fill="#54cafa" stroke="#1a1a1a" stroke-linecap="round" stroke-linejoin="round" stroke-width="4.086" d="M1032.96193,888.44583s-30.77866,18.84408-69.09495,48.36647-65.95427,97.36107-54.01969,242.46047c51.50715,8.16576,114.94887,5.02508,126.25532-7.53764,3.76882-52.13528,16.01747-92.336,14.13306-118.71768"></path><path fill="#fff" stroke="#1a1a1a" stroke-linecap="round" stroke-linejoin="round" stroke-width="4.086" d="M1482.9428,1282.44409c-29.98648,4.20126-29.67942-19.31518-26.61726-33.68379,3.81316-17.89248,16.253-43.57693,40.75032-40.04366a29.26747,29.26747,0,0,1,12.80831,5.21714c3.72284,2.65315-2.36555-20.66256,10.19717-20.21389,17.19939.61427,8.43779,68.58054-10.21421,92.53168"></path><circle cx="2552.682" cy="1306.981" r="66.998" fill="none" stroke="#1a1a1a" stroke-linecap="round" stroke-linejoin="round" stroke-width="6.129"></circle><circle cx="335.666" cy="1190.364" r="95.887" fill="#fff" stroke="#1a1a1a" stroke-linecap="round" stroke-linejoin="round" stroke-width="4.086"></circle><circle cx="527.44" cy="1610.174" r="108.994" fill="#fff" stroke="#1a1a1a" stroke-linecap="round" stroke-linejoin="round" stroke-width="4.086"></circle><path fill="#fff" stroke="#1a1a1a" stroke-linecap="round" stroke-linejoin="round" stroke-width="4.086" d="M554.09783 1663.05589c-9.66435 5.09574-19.50442 7.02861-31.27736 7.02861-28.81733 0-53.24178-21.08585-53.24178-54.82322 0-36.19739 25.12731-67.47474 64.13614-67.47474 30.5745 0 51.13321 21.43728 51.13321 50.78177 0 26.35732-14.7601 41.82028-31.27736 41.82028-7.02862 0-13.53009-4.74432-13.00294-15.463h-.70286c-6.15 10.36721-14.233 15.463-24.77589 15.463-10.19149 0-18.97727-8.25863-18.97727-22.14015a41.49439 41.49439 0 0141.64457-41.64457 46.329 46.329 0 0118.80156 3.69l-5.97433 31.8045c-2.63573 13.35437-.52715 19.50442 5.27146 19.68013 8.96149.17572 18.97727-11.77294 18.97727-32.15593 0-25.47874-15.28724-43.75315-42.52314-43.75315-28.64162 0-52.71464 22.66729-52.71464 58.33753 0 29.34449 19.153 47.44318 45.15888 47.44318 10.01578 0 19.3287-2.10858 26.533-6.15zm-9.66435-75.90909a30.37408 30.37408 0 00-8.78578-1.23c-15.463 0-27.93876 14.58439-27.93876 31.62879 0 7.73148 3.86574 13.35437 11.59723 13.35437 10.19149 0 19.50441-13.00294 21.43728-23.8973zM893.32568 575.40956H598.13283a51.48876 51.48876 0 00-51.48876 51.48876v62.00221a51.48876 51.48876 0 0051.48876 51.48876H833.88038c10.34254 15.04037 27.79651 39.58486 42.87548 60.66115 7.62447 10.65692 24.42551 4.13862 22.88169-8.87364l-6.14477-51.792a51.48533 51.48533 0 0051.32166-51.48427V626.89832A51.48876 51.48876 0 00893.32568 575.40956z"></path><rect width="263.624" height="23.304" x="606.814" y="608.838" fill="#fff" stroke="#1a1a1a" stroke-linecap="round" stroke-linejoin="round" stroke-width="4.086"></rect><rect width="263.624" height="23.304" x="606.814" y="667.594" fill="#fff" stroke="#1a1a1a" stroke-linecap="round" stroke-linejoin="round" stroke-width="4.086"></rect></g></g></svg>