<svg xmlns="http://www.w3.org/2000/svg" viewBox="0 0 3000 3000" id="web-designer"><g data-name="Layer 2"><g data-name="Layer 1"><rect width="3000" height="3000" fill="none"></rect><path fill="#fff" stroke="#1a1a1a" stroke-linecap="round" stroke-linejoin="round" stroke-width="4.521" d="M234.492,2654.42332s202.55455,198.51227,681.93306,150.172,539.07849-107.89592,838.13143,25.00787c42.58565,18.92573,88.456,31.23621,134.53653,40.36451,53.96976,10.69112,108.944,16.89,163.97951,20.32868a1767.89392,1767.89392,0,0,0,177.61972,1.86571c58.7032-2.24147,117.32052-7.13584,175.45721-15.02439,53.06311-7.20011,105.86013-16.83184,157.492-30.34164,42.4778-11.11459,84.736-24.71984,123.724-44.086,27.89585-13.85648,56.4228-31.35767,74.15284-56.257,10.47274-14.7075,16.82815-33.21385,12.93761-50.83808-3.19432-14.47035-13.9454-28.18224-21.2751-41.19157Z"></path><path fill="none" stroke="#1a1a1a" stroke-linecap="round" stroke-linejoin="round" stroke-width="6.781" d="M1589.13089,2652.25786H2946.21016c2.02624-23.81763,14.38964-198.51519-99.90332-293.96671-128.583-107.38571-378.11464-81.59855-544.63409,112.79435Q1945.4018,2561.6714,1589.13089,2652.25786Z"></path><path fill="#fff" stroke="#1a1a1a" stroke-linecap="round" stroke-linejoin="round" stroke-width="4.521" d="M229.05446,2654.42332H2751.08222c-37.20385-74.09806-103.7017-185.53664-216.71218-292.28009-67.371-63.63486-304.17972-280.446-662.69971-282.66825-247.056-1.53116-430.99234,99.5862-515.08411,153.89695-82.25766-73.799-202.44871-86.16986-295.23115-31.40734C975.395,2252.70048,927.99184,2352.1888,942.0063,2453.225c-54.16077-48.704-166.35108-135.17722-329.77947-163.31895-99.20543-17.08263-248.25412-42.74826-339.20166,53.3927C167.20676,2455.16,225.0394,2642.067,229.05446,2654.42332Z"></path><path fill="#1c0311" stroke="#1a1a1a" stroke-linecap="round" stroke-linejoin="round" stroke-width="2.26" d="M2174.09836,197.13627v57.71566H522.85459V197.13627a64.75722,64.75722,0,0,1,64.76507-64.76535H2109.31137A64.76182,64.76182,0,0,1,2174.09836,197.13627Z"></path><path fill="#fff" stroke="#1a1a1a" stroke-linecap="round" stroke-linejoin="round" stroke-width="4.521" d="M2174.09836,254.85193v783.23833a64.76188,64.76188,0,0,1-64.787,64.76481H587.61966a64.75728,64.75728,0,0,1-64.76507-64.76481V254.85193Z"></path><rect width="1802.009" height="63.6" x="430.98" y="106.455" fill="#fff" stroke="#1a1a1a" stroke-linecap="round" stroke-linejoin="round" stroke-width="4.521"></rect><line x1="522.847" x2="2174.1" y1="386.767" y2="386.767" fill="none" stroke="#1a1a1a" stroke-dasharray="27.124" stroke-linecap="round" stroke-linejoin="round" stroke-width="4.521"></line><rect width="977.163" height="188.445" x="619.425" y="459.79" fill="none" stroke="#1a1a1a" stroke-dasharray="27.124" stroke-linecap="round" stroke-linejoin="round" stroke-width="4.521"></rect><rect width="977.163" height="339.202" x="619.425" y="697.702" fill="none" stroke="#1a1a1a" stroke-dasharray="27.124" stroke-linecap="round" stroke-linejoin="round" stroke-width="4.521"></rect><line x1="1716.073" x2="1716.073" y1="264.278" y2="1499.882" fill="none" stroke="#1a1a1a" stroke-dasharray="27.124" stroke-linecap="round" stroke-linejoin="round" stroke-width="4.521"></line><rect width="54.963" height="47.111" x="1688.853" y="365.567" fill="#1c0311" stroke="#1a1a1a" stroke-linecap="round" stroke-linejoin="round" stroke-width="2.26"></rect><line x1="112.193" x2="2964" y1="2654.423" y2="2654.423" fill="none" stroke="#1a1a1a" stroke-linecap="round" stroke-linejoin="round" stroke-width="6.781"></line><polygon fill="#1c0311" stroke="#1a1a1a" stroke-linecap="round" stroke-linejoin="round" stroke-width="2.26" points="2436.461 2571.614 2464.656 2652.258 2492.137 2652.258 2524.33 2571.614 2436.461 2571.614"></polygon><polygon fill="#1c0311" stroke="#1a1a1a" stroke-linecap="round" stroke-linejoin="round" stroke-width="2.26" points="2072.584 2571.614 2100.779 2652.258 2128.26 2652.258 2160.453 2571.614 2072.584 2571.614"></polygon><path fill="#fff" stroke="#1a1a1a" stroke-linecap="round" stroke-linejoin="round" stroke-width="4.521" d="M2285.59653 2091.12522s229.27525-46.31081 320.35719 44.76712 75.37817 285.58332 65.9559 333.43782-20.41492 107.72132-117.77838 113.29287-373.75006 33.358-519.01007-22.21494c-95.00789-101.88378-111.75859-413.61828-111.75859-413.61828s61.76821-86.4147 195.77384-67.43769S2285.59653 2091.12522 2285.59653 2091.12522zM2330.89683 2088.95492s66.19657 23.89213 70.9077 60.49979M2181.95155 2108.8777s-30.62238 12.34955-31.40756 44.76712"></path><path fill="#fff" stroke="#1a1a1a" stroke-linecap="round" stroke-linejoin="round" stroke-width="4.521" d="M1958.17263,2153.64482c0,2.31554,69.12266,51.37211,164.10454,27.78648s151.54152,11.5777,167.2453,23.92725,203.364,34.73311,254.40131-5.40293l51.03729-40.136"></path><path fill="#1c0311" stroke="#1a1a1a" stroke-linecap="round" stroke-linejoin="round" stroke-width="2.26" d="M2393.41827,1378.45858,2326.42839,1346.01s-44.30026-33.74792-86.48556-65.514a112.08013,112.08013,0,0,0,7.18145-8.81157c-37.60338-31.34711-49.89556-78.11446-53.81677-104.70352-15.17782-15.79456-7.18131-46.5689,2.37916-69.61106,21.58832-.79328,38.48459-9.42844,35.731-29.84929-2.75362-20.39881-23.15242-23.9457-30.62025-18.06361-7.46784-8.2388-3.15012-15.68485,3.92121-36.89844-33.83652-5.19906-42.11942-40.974-44.124-56.4604-1.91651-1.05735-2.97385-1.63012-2.97385-1.63012s-21.985-4.71395-47.11989,26.67726c-5.96989,7.46757-14.18663,18.10771-22.88808,30.42207-9.8029-11.19087-24.23181-35.24628-1.98252-63.90592,30.88445-39.78436,76.947-17.27087,82.71856-13.08559,42.91229-6.3,114.10978,3.12847,132.94448,107.832,18.85675,104.68147,80.62592,171.69327,120.41015,200.99184C2461.48769,1272.71976,2449.96647,1350.19584,2393.41827,1378.45858Z"></path><path fill="#54cafa" stroke="#1a1a1a" stroke-linecap="round" stroke-linejoin="round" stroke-width="4.521" d="M2035.12117,1319.57226s-129.55622,100.21527-201.79362,225.59742c-14.13341-92.90044-62.81514-311.183-78.51892-303.33115-34.54833,31.40757-61.24476,25.12605-65.9559,40.82984s-4.71113,380.03157,61.24476,400.44649,299.94228,9.42227,299.94228,9.42227l23.84886-95.79308"></path><path fill="#1c0311" stroke="#1a1a1a" stroke-linecap="round" stroke-linejoin="round" stroke-width="2.26" d="M1694.822 1287.526s-.40284 10.86587 23.36448 8.24743 42.49918-24.97582 40.08217-41.49209-18.329-19.739-29.407-16.11344S1689.38366 1261.151 1694.822 1287.526zM2033.70629 2522.65642c-5.37608-10.01985-9.316-16.66351-9.316-16.66351s-82.18324 11.51645-85.63806 13.087c-1.77087.80459-.40657 9.4509.78072 19.0966C1969.42394 2552.12384 2008.85906 2542.92569 2033.70629 2522.65642z"></path><path fill="#fff" stroke="#1a1a1a" stroke-linecap="round" stroke-linejoin="round" stroke-width="4.521" d="M2033.70629,2522.65642c-24.84723,20.26927-64.28235,29.46742-94.17331,15.52009,1.12894,9.17221,2.098,19.24725.05684,24.35016-27.74331,6.80535-98.9338,47.6347-118.82532,60.198-16.45781,10.39455-42.57484,32.61735,62.03,31.66928,21.8234-.19811,181.90217-22.24708,180.85518-53.13108C2062.93862,2580.28559,2045.08947,2543.87155,2033.70629,2522.65642Z"></path><path fill="#1c0311" stroke="#1a1a1a" stroke-linecap="round" stroke-linejoin="round" stroke-width="2.26" d="M1445.42177,2539.5964a169.49452,169.49452,0,0,0,88.63251,20.79407,269.90625,269.90625,0,0,0-6.95049-26.65411s-46.06443-18.3207-69.09664-16.7507c-1.04878,4.37006-6.72534,11.6638-15.378,20.01873A11.19915,11.19915,0,0,0,1445.42177,2539.5964Z"></path><path fill="#fff" stroke="#1a1a1a" stroke-linecap="round" stroke-linejoin="round" stroke-width="4.521" d="M1534.05428 2560.39047a169.49452 169.49452 0 01-88.63251-20.79407 11.19915 11.19915 0 01-2.79261-2.592c-17.26047 16.66627-46.41471 37.57126-74.657 48.03093-42.40018 15.70385-85.32392 46.0647-68.0498 66.47966s76.42515 15.70385 111.497 6.8048c35.07168-8.8985 73.80775-10.469 105.21531-18.3207 31.40757-7.85221 20.93838-55.48691 18.84454-71.19076C1535.11437 2566.07282 1534.61771 2563.22641 1534.05428 2560.39047zM2040.6175 1760.58686s-273.24585-21.98529-375.8439 115.16109-194.72692 415.62682-217.75914 632.339c-5.2346 28.26681 68.04973 36.64216 81.65968 33.5014 34.54832-26.173 205.19611-353.8586 258.589-412.48606s123.013-225.3493 123.013-225.3493l225.5016-32.978-32.31784-111.484"></path><path fill="#fff" stroke="#1a1a1a" stroke-linecap="round" stroke-linejoin="round" stroke-width="4.521" d="M2461.47891,1827.58968s84.80043,152.85016-104.69189,250.21362-457.50358-88.98811-457.50358-88.98811,150.75633,303.60649,135.83773,518.74834c-11.77784,20.41492-99.719,26.69643-110.71168,14.1334s-268.5347-444.41709-179.02313-595.17341,336.061-158.60822,336.061-158.60822Z"></path><path fill="#1c0311" stroke="#1a1a1a" stroke-linecap="round" stroke-linejoin="round" stroke-width="2.26" d="M2045.96056,1786.22616s187.90758,84.40509,298.09856,73.04757,93.45792-39.74647,93.45792-39.74647L2045.96056,1757.222l-22.2501,16.77882Z"></path><path fill="#54cafa" stroke="#1a1a1a" stroke-linecap="round" stroke-linejoin="round" stroke-width="4.521" d="M2015.49144,1358.04653s-81.65967,83.23006-61.24476,251.26055c12.563,114.63762,61.24476,158.60822,61.24476,158.60822s304.65341,89.51157,373.75006,78.51892,53.84289-69.09665,55.97345-119.34876-47.33637-392.5946-122.71453-424.00217-106.00054-37.68908-106.00054-37.68908l-120.91914,34.54832-57.238,21.19352"></path><path fill="#54cafa" stroke="#1a1a1a" stroke-linecap="round" stroke-linejoin="round" stroke-width="4.521" d="M2242.91139,1267.99558s113.35217,17.02836,200.50817,138.73268,88.72638,364.32779,30.62238,424.00217-220.63817,120.13395-335.27579-92.65232c-12.563-46.32617,17.27416-80.87449,37.68908-79.30411,28.26681,1.57038,106.00054,17.27416,160.96379,83.23005,36.90389-7.85189,62.29167-46.87684,37.16562-196.83437"></path><path fill="#fff" stroke="#1a1a1a" stroke-linecap="round" stroke-linejoin="round" stroke-width="4.521" d="M2185.4849,1668.58886s-25.4642-25.12605-82.025-1.963c-34.57554,14.1334-33.79035,34.15573-33.79035,34.15573l130.34141,1.57038S2194.51458,1678.40373,2185.4849,1668.58886Z"></path><rect width="335.014" height="32.065" x="1679.43" y="1663.552" fill="#fff" stroke="#1a1a1a" stroke-linecap="round" stroke-linejoin="round" stroke-width="4.521"></rect><polygon fill="#1c0311" stroke="#1a1a1a" stroke-linecap="round" stroke-linejoin="round" stroke-width="2.26" points="1716.073 1695.499 1698.119 1695.499 1596.588 1448.599 1614.52 1448.599 1716.073 1695.499"></polygon><polygon fill="#fff" stroke="#1a1a1a" stroke-linecap="round" stroke-linejoin="round" stroke-width="4.521" points="1698.119 1695.499 1299.264 1695.499 1194.56 1448.599 1596.588 1448.599 1698.119 1695.499"></polygon><rect width="1210.762" height="47.958" x="1038.716" y="1695.617" fill="#1c0311" stroke="#1a1a1a" stroke-linecap="round" stroke-linejoin="round" stroke-width="2.26"></rect><path fill="#fff" stroke="#1a1a1a" stroke-linecap="round" stroke-linejoin="round" stroke-width="4.521" d="M1749.3123,1253.61637s14.13341-71.45222,1.963-89.119-27.089-31.015-36.9039-31.015-38.86686,23.55568-38.86686,41.615-2.35557,53.76534,6.28151,66.53473,18.84454,28.86576,18.84454,39.8584S1740.28263,1291.30545,1749.3123,1253.61637Z"></path><path fill="#fff" stroke="#1a1a1a" stroke-linecap="round" stroke-linejoin="round" stroke-width="4.521" d="M1732.8228 1177.1383s14.09113 61.17619-6.3823 64.96342-28.321-2.65814-28.321-2.65814M2193.30751 1166.98095c-15.17782-15.79456-7.18131-46.5689 2.37916-69.61106 21.58832-.79328 38.48459-9.42844 35.731-29.84929-2.75362-20.39881-23.15242-23.9457-30.62025-18.06361-7.46784-8.2388-3.15012-15.68485 3.92121-36.89844-33.83652-5.19906-42.11942-40.974-44.124-56.4604-1.91651-1.05735-2.97385-1.63012-2.97385-1.63012s-21.985-4.71395-47.11989 26.67726c-5.96989 7.46757-14.18663 18.10771-22.88808 30.42207-27.93265 39.51975-60.68965 96.20011-39.14543 119.551a82.54386 82.54386 0 0050.75471 26.05985l1.85036 26.567c2.35711 52.60534-33.74832 107.56739-65.95459 135.83013 90.78122 45.027 171.45111-1.96034 204.825-39.07928a112.08013 112.08013 0 007.18145-8.81157C2209.5209 1240.33736 2197.22872 1193.57 2193.30751 1166.98095z"></path><path fill="#1c0311" stroke="#1a1a1a" stroke-linecap="round" stroke-linejoin="round" stroke-width="2.26" d="M2128.91935,1152.92962s-22.29025,19.6432-29.27274,16.42052V1159.145Z"></path><path fill="#fff" stroke="#1a1a1a" stroke-linecap="round" stroke-linejoin="round" stroke-width="4.521" d="M2129.34388 1151.455a70.781 70.781 0 01-30.1218 5.7232M488.13732 2136.43254c-15.95-22.58691-41.24352-40.42156-68.89325-40.16845-34.81911.31874-63.13275 27.83224-96.57016 37.5488-44.94952 13.06186-97.07954-10.96816-118.2813-52.70012s-10.86767-96.51952 22.55584-129.29054c17.34539-17.00678 41.62545-31.36457 44.60043-55.47354 2.43018-19.69389-11.1683-37.94671-26.79132-50.18094s-34.02043-21.00079-47.893-35.189c-27.84226-28.47577-30.73623-77.81471-6.41393-109.35019s72.77787-41.27018 107.39237-21.57507c18.326 10.4272 32.47086 27.63876 51.85851 35.92653 28.16144 12.03836 60.51 2.73532 89.23915-7.87723s59.29673-22.66046 89.10055-15.60908a73.02659 73.02659 0 0142.69624 113.39064c-13.01014 18.29207-35.30107 32.71717-36.28511 55.14249-1.00282 22.85353 22.0544 40.07812 44.50406 44.47157s45.80168.4697 68.42039 3.88781 46.69385 18.10856 48.65819 40.89959c3.062 35.52681-47.60222 59.07122-43.42341 94.484 1.94416 16.47556 15.40293 28.73476 25.61911 41.80585 12.08656 15.46414 20.485 34.30124 21.11225 53.91836s-7.21008 39.9031-22.62951 52.04665c-19.44144 15.31109-46.37536 15.5465-71.11776 15.08511-21.28038-.39684-62.66257 7.33441-81.76858-3.5201C505.2329 2193.542 501.25713 2153.92562 488.13732 2136.43254z"></path><path fill="#fff" stroke="#1a1a1a" stroke-linecap="round" stroke-linejoin="round" stroke-width="4.521" d="M460.80424 1570.8199c-2.446-29.8828 13.08669-63.53429 42.00771-71.44246 19.53256-5.341 43.91266.5817 57.70653-14.24314 16.53093-17.76649 1.7705-46.832 6.84308-70.56365 3.21254-15.02958 14.859-27.44251 28.83579-33.83454s29.99676-7.275 45.18745-4.94a113.41584 113.41584 0 0192.31962 141.45721c-7.4362 27.74852-25.54252 54.70747-19.37621 82.76551 6.86 31.21438 41.4028 50.178 49.26829 81.15427 5.179 20.39636-2.36624 41.79548-11.67933 60.6661s-20.68906 37.33084-23.847 58.13615c-4.00931 26.41393 5.72543 52.68923 13.25912 78.3215s12.705 54.39124.49241 78.153c-9.52044 18.52371-28.56186 30.90945-48.74853 36.03438s-41.4976 3.7149-62.00831.09867c-29.482-5.19795-58.535-15.08748-83.02527-32.30459s-44.16852-42.22414-51.573-71.23056c-7.69848-30.158-1.52381-61.25412 9.24827-89.82825 8.54091-22.65568 25.70417-46.71735 24.61637-71.884-1.114-25.77239-21.09737-49.90748-33.83105-71.06673C480.61805 1629.87792 463.38065 1602.29628 460.80424 1570.8199zM292.26287 1776.29065s159.13168 52.34594 202.05536 180.07006 85.447 243.08417 150.9591 249.25628M453.48839 1791.471c0 2.6173-18.79165 39.09446-4.16123 88.12042M406.93569 2001.90168s84.07969 61.82817 118.44733 42.69192M316.86547 1841.19962s69.167 33.93487 90.07022-1.61538M637.74612 1499.88224s-61.76822 296.29987-7.32843 435.54009M663.91909 1572.049s-21.953 46.59913-47.09518 63.12871M549.80493 1644.37886c1.04692 4.18768 20.04607 64.88717 58.18131 73.27342M607.98624 1516.65475s-.47206 36.9998 18.59556 46.42207"></path><path fill="#fff" stroke="#1a1a1a" stroke-linecap="round" stroke-linejoin="round" stroke-width="4.521" d="M790.932 2226.45959c-5.94405-34.23552 20.91531-66.44985 51.7611-82.448s66.14337-21.10469 98.32945-34.19893c63.74943-25.93513 112.962-84.93693 127.036-152.30564 6.42974-30.77753 4.36654-66.64783-18.3671-88.36832-8.00866-7.65174-17.98638-12.93172-26.39334-20.14358s-15.49744-17.46289-14.48441-28.49292c1.05284-11.46364 10.46277-20.373 20.2951-26.36036s20.86771-10.36761 29.06426-18.45094c15.64361-15.42752 16.97281-40.71175 10.80071-61.79814-13.87394-47.399-63.14873-81.80259-112.42564-78.49543s-93.5126 43.98659-100.92839 92.81442c-2.016 13.274-1.97928 27.91969-10.50613 38.29059-12.67053 15.4107-37.10021 12.98362-55.4813 5.22683s-36.25379-19.62987-56.18687-18.79075c-31.32581 1.31873-51.8476 32.2618-67.01081 59.70487-22.00476 39.82522-44.15478 79.9852-57.79367 123.393s-18.34006 90.83226-5.04113 134.34544c17.50317 57.26923 63.24276 100.728 107.1895 141.40733C737.13925 2207.59333 767.96445 2212.87984 790.932 2226.45959zM732.49228 2195.05822s0-175.88238 194.72693-375.32044M980.61207 1833.47859s4.3011 29.38064-86.96842 22.54222M827.89277 1848.39719s-23.64222 56.08042 10.94938 77.31083M917.40434 1972.45708s-97.20116 38.69457-126.53061 31.91031M728.56634 2005.16556s37.16983 48.62827 27.62331 78.85609"></path><polygon fill="#fff" stroke="#1a1a1a" stroke-linecap="round" stroke-linejoin="round" stroke-width="4.521" points="837.708 2177.784 487.513 2185.636 493.071 2217.043 833.387 2217.043 837.708 2177.784"></polygon><polygon fill="#fff" stroke="#1a1a1a" stroke-linecap="round" stroke-linejoin="round" stroke-width="4.521" points="496.388 2235.791 545.869 2515.416 800.551 2515.416 831.324 2235.791 496.388 2235.791"></polygon><polygon fill="#1c0311" stroke="#1a1a1a" stroke-linecap="round" stroke-linejoin="round" stroke-width="2.26" points="833.387 2217.044 493.071 2217.044 496.388 2235.791 831.324 2235.791 833.387 2217.044"></polygon><polygon fill="#1c0311" stroke="#1a1a1a" stroke-linecap="round" stroke-linejoin="round" stroke-width="2.26" points="545.869 2515.415 577.025 2691.488 781.174 2691.488 800.551 2515.415 545.869 2515.415"></polygon><rect width="62.815" height="47.111" x="630.418" y="301.182" fill="#fff" stroke="#1a1a1a" stroke-linecap="round" stroke-linejoin="round" stroke-width="4.521" rx="10.421"></rect><rect width="407.513" height="43.185" x="785.1" y="305.108" fill="#fff" stroke="#1a1a1a" stroke-linecap="round" stroke-linejoin="round" stroke-width="4.521" rx="9.553"></rect><circle cx="378.583" cy="1320.006" r="90.187" fill="#fff" stroke="#1a1a1a" stroke-linecap="round" stroke-linejoin="round" stroke-width="4.521"></circle><circle cx="319.104" cy="1050.42" r="39.78" fill="#fff" stroke="#1a1a1a" stroke-linecap="round" stroke-linejoin="round" stroke-width="4.521"></circle><circle cx="2366.351" cy="324.738" r="85.746" fill="#fff" stroke="#1a1a1a" stroke-linecap="round" stroke-linejoin="round" stroke-width="4.521"></circle><path fill="#1a1a1a" stroke="#1a1a1a" stroke-linecap="round" stroke-linejoin="round" stroke-width="4.521" d="M2412.40673 362.9944h-92.11051s-.85509-10.66026 4.686-13.22553c5.55225-2.55358 9.80489-54.9992 25.59569-61.39541 2.46256-1.00345 4.53766-1.84713 6.29322-2.55386a10.04533 10.04533 0 01-.7638-3.84234 10.23828 10.23828 0 1119.72417 3.84234c1.74442.70673 3.83093 1.55041 6.2935 2.55386 15.77939 6.39621 20.04343 58.84183 25.58427 61.39541C2413.2504 352.33414 2412.40673 362.9944 2412.40673 362.9944zM2381.08761 362.9944a14.74184 14.74184 0 01-29.48368 0z"></path><line x1="1716.073" x2="1716.073" y1="1249.649" y2="1492.962" fill="none" stroke="#1a1a1a" stroke-dasharray="27.124" stroke-linecap="round" stroke-linejoin="round" stroke-width="4.521"></line><path fill="#fff" stroke="#1a1a1a" stroke-linecap="round" stroke-linejoin="round" stroke-width="4.521" d="M265.48747,723.337l-17.87375,25.50639a124.6005,124.6005,0,0,0-146.48593,2.54725L82.39325,726.50781A155.68458,155.68458,0,0,1,265.48747,723.337Z"></path><path fill="#fff" stroke="#1a1a1a" stroke-linecap="round" stroke-linejoin="round" stroke-width="4.521" d="M311.88072 655.80382l-26.93161 38.43224a187.7442 187.7442 0 00-220.72048 3.83812L36 660.58152A234.5807 234.5807 0 01311.88072 655.80382zM229.73112 774.36736l-17.89133 25.53277a62.25151 62.25151 0 00-73.23418 1.26473l-18.73448-24.89162A93.43277 93.43277 0 01229.73112 774.36736zM205.86723 860.04734a31.1507 31.1507 0 11-48.52708-33.99966h.0088a31.14517 31.14517 0 0148.51828 33.99966z"></path></g></g></svg>