<svg xmlns="http://www.w3.org/2000/svg" enable-background="new 0 0 800 600" viewBox="0 0 800 600" id="concept-of-broken-links"><linearGradient id="a" x1="401.555" x2="401.555" y1="86.101" y2="554.029" gradientUnits="userSpaceOnUse"><stop offset="0" stop-color="#7633ff"></stop><stop offset=".148" stop-color="#7138ff"></stop><stop offset=".329" stop-color="#6447ff"></stop><stop offset=".529" stop-color="#4e60ff"></stop><stop offset=".741" stop-color="#2f83ff"></stop><stop offset=".961" stop-color="#08afff"></stop><stop offset="1" stop-color="#00b8ff"></stop></linearGradient><path fill="url(#a)" d="M792.25 461.6c-2.35-48.68-31.33-117.45-80.25-168.93-67.74-71.3-153.89-44.31-174.93-67.84-21.05-23.54-103.91-152.77-261.74-152.77-152.19 0-257.15 144.51-264.46 415.51 0 0 112.17 57.82 337.73 57.82 288.41 0 443.65-83.79 443.65-83.79z"></path><linearGradient id="b" x1="221.318" x2="542.767" y1="454.422" y2="454.422" gradientUnits="userSpaceOnUse"><stop offset="0" stop-color="#70b"></stop><stop offset="1" stop-color="#00008b"></stop><stop offset="1"></stop></linearGradient><path fill="url(#b)" d="M226.95 459.85s72.04 28.36 102.69 26.06c30.66-2.3 72.81-8.43 77.4-13.03 4.6-4.6-15.33-15.33.77-16.09 16.09-.77 39.09 9.96 75.87 6.9s60.54-7.66 59.01-11.5c-1.53-3.83-15.95-8.66-55.87-16.98-39.92-8.31-83.61-13.68-103.53-12.15-19.93 1.53-125.69 24.52-142.55 26.06-16.86 1.53-26.05 6.9-13.79 10.73z" opacity=".3"></path><linearGradient id="c" x1="159.747" x2="165.851" y1="363.184" y2="363.184" gradientUnits="userSpaceOnUse"><stop offset="0" stop-color="#3d3688"></stop><stop offset=".146" stop-color="#484a99"></stop><stop offset=".535" stop-color="#627bc3"></stop><stop offset=".833" stop-color="#7399dd"></stop><stop offset="1" stop-color="#79a4e7"></stop></linearGradient><path fill="url(#c)" d="M165.65 362.6c.6 2.96-.18 5.62-1.75 5.94-1.57.32-3.34-1.82-3.94-4.78-.6-2.96.18-5.62 1.75-5.94 1.57-.32 3.33 1.82 3.94 4.78z"></path><linearGradient id="d" x1="508.088" x2="545.07" y1="427.954" y2="427.954" gradientUnits="userSpaceOnUse"><stop offset="0" stop-color="#88cfda"></stop><stop offset=".008" stop-color="#89cfd9"></stop><stop offset=".478" stop-color="#c8d9bb"></stop><stop offset=".822" stop-color="#f0dfa7"></stop><stop offset="1" stop-color="#ffe1a0"></stop></linearGradient><path fill="url(#d)" d="m534.91 425.67 7.67-15.84-14.83 10.85-3.76-9.12-.78 8.36-14.35-7.48 10.32 13.26-11.09 2.77 11.75 2.17-7.48 15.44 13.58-9.94 2.94 6.48 1.02-7.64 14.11 6.76-8.57-11.8 9.63-2.4z" opacity=".6"></path><linearGradient id="e" x1="123.039" x2="167.061" y1="339.185" y2="339.185" gradientUnits="userSpaceOnUse"><stop offset="0" stop-color="#88cfda"></stop><stop offset=".008" stop-color="#89cfd9"></stop><stop offset=".478" stop-color="#c8d9bb"></stop><stop offset=".822" stop-color="#f0dfa7"></stop><stop offset="1" stop-color="#ffe1a0"></stop></linearGradient><path fill="url(#e)" d="m154.97 336.47 9.13-18.87-17.66 12.93-4.47-10.86-.93 9.95-17.08-8.9 12.28 15.79-13.2 3.29 13.98 2.58-8.9 18.39 16.17-11.84 3.5 7.72 1.22-9.1 16.79 8.05-10.2-14.05 11.46-2.85z"></path><linearGradient id="f" x1="332.551" x2="672.872" y1="580.012" y2="357.73" gradientUnits="userSpaceOnUse"><stop offset="0" stop-color="#1dacff"></stop><stop offset=".112" stop-color="#20a9fb"></stop><stop offset=".226" stop-color="#28a0ef"></stop><stop offset=".342" stop-color="#3690da"></stop><stop offset=".458" stop-color="#497bbe"></stop><stop offset=".574" stop-color="#625f99"></stop><stop offset=".585" stop-color="#655c95"></stop><stop offset=".637" stop-color="#6f5f91"></stop><stop offset=".723" stop-color="#896886"></stop><stop offset=".834" stop-color="#b37774"></stop><stop offset=".963" stop-color="#ed8c5c"></stop><stop offset="1" stop-color="#ff9254"></stop></linearGradient><path fill="url(#f)" d="M633.3 364.32c.81 11.28 9.67 19.84 19.77 19.11l29.67-2.14c10.11-.73 17.64-10.47 16.83-21.75-.81-11.28-9.67-19.84-19.77-19.11l-29.67 2.14c-10.11.74-17.65 10.47-16.83 21.75zm11.18-.8c-.48-6.7 4.55-12.52 11.25-13l19.66-1.42c6.7-.48 12.52 4.55 13 11.25.48 6.7-4.55 12.52-11.25 13l-19.66 1.42c-6.7.48-12.52-4.55-13-11.25z"></path><linearGradient id="g" x1="356.421" x2="696.744" y1="616.564" y2="394.281" gradientUnits="userSpaceOnUse"><stop offset="0" stop-color="#1dacff"></stop><stop offset=".112" stop-color="#20a9fb"></stop><stop offset=".226" stop-color="#28a0ef"></stop><stop offset=".342" stop-color="#3690da"></stop><stop offset=".458" stop-color="#497bbe"></stop><stop offset=".574" stop-color="#625f99"></stop><stop offset=".585" stop-color="#655c95"></stop><stop offset=".637" stop-color="#6f5f91"></stop><stop offset=".723" stop-color="#896886"></stop><stop offset=".834" stop-color="#b37774"></stop><stop offset=".963" stop-color="#ed8c5c"></stop><stop offset="1" stop-color="#ff9254"></stop></linearGradient><path fill="url(#g)" d="m722.96 384.24 29.51 3.79c7.02.9 13.69-2.76 17.56-8.88a319.3 319.3 0 0 0-17.04-32.35l-24.8-3.19c-10.05-1.29-19.37 6.76-20.81 17.98-1.45 11.21 5.53 21.36 15.58 22.65zm-4.47-21.22c.86-6.66 6.95-11.37 13.61-10.51l19.55 2.51c6.66.85 11.36 6.95 10.5 13.61-.85 6.66-6.95 11.37-13.61 10.51l-19.56-2.51c-6.65-.86-11.35-6.95-10.49-13.61z"></path><linearGradient id="h" x1="344.24" x2="684.563" y1="597.913" y2="375.63" gradientUnits="userSpaceOnUse"><stop offset="0" stop-color="#1dacff"></stop><stop offset=".112" stop-color="#20a9fb"></stop><stop offset=".226" stop-color="#28a0ef"></stop><stop offset=".342" stop-color="#3690da"></stop><stop offset=".458" stop-color="#497bbe"></stop><stop offset=".574" stop-color="#625f99"></stop><stop offset=".585" stop-color="#655c95"></stop><stop offset=".637" stop-color="#6f5f91"></stop><stop offset=".723" stop-color="#896886"></stop><stop offset=".834" stop-color="#b37774"></stop><stop offset=".963" stop-color="#ed8c5c"></stop><stop offset="1" stop-color="#ff9254"></stop></linearGradient><path fill="url(#h)" d="M672.96 362.7c-.11 3.53 3.06 6.5 7.08 6.62l45.46 1.38c4.02.12 7.36-2.65 7.47-6.18.11-3.53-3.06-6.5-7.08-6.62l-45.46-1.38c-4.02-.13-7.36 2.64-7.47 6.18z"></path><linearGradient id="i" x1="289.356" x2="629.679" y1="513.884" y2="291.601" gradientUnits="userSpaceOnUse"><stop offset="0" stop-color="#1dacff"></stop><stop offset=".112" stop-color="#20a9fb"></stop><stop offset=".226" stop-color="#28a0ef"></stop><stop offset=".342" stop-color="#3690da"></stop><stop offset=".458" stop-color="#497bbe"></stop><stop offset=".574" stop-color="#625f99"></stop><stop offset=".585" stop-color="#655c95"></stop><stop offset=".637" stop-color="#6f5f91"></stop><stop offset=".723" stop-color="#896886"></stop><stop offset=".834" stop-color="#b37774"></stop><stop offset=".963" stop-color="#ed8c5c"></stop><stop offset="1" stop-color="#ff9254"></stop></linearGradient><path fill="url(#i)" d="M482.94 374.14c2.65 10.99 12.79 17.98 22.64 15.61l28.92-6.97c9.85-2.37 15.68-13.21 13.03-24.21-2.65-11-12.79-17.99-22.64-15.61l-28.92 6.98c-9.85 2.36-15.69 13.2-13.03 24.2zm10.89-2.63c-1.58-6.53 2.44-13.1 8.97-14.67l19.16-4.62c6.53-1.57 13.09 2.44 14.67 8.97 1.58 6.53-2.44 13.09-8.97 14.67l-19.17 4.62c-6.52 1.58-13.08-2.44-14.66-8.97z"></path><linearGradient id="j" x1="307.552" x2="647.875" y1="541.743" y2="319.46" gradientUnits="userSpaceOnUse"><stop offset="0" stop-color="#1dacff"></stop><stop offset=".112" stop-color="#20a9fb"></stop><stop offset=".226" stop-color="#28a0ef"></stop><stop offset=".342" stop-color="#3690da"></stop><stop offset=".458" stop-color="#497bbe"></stop><stop offset=".574" stop-color="#625f99"></stop><stop offset=".585" stop-color="#655c95"></stop><stop offset=".637" stop-color="#6f5f91"></stop><stop offset=".723" stop-color="#896886"></stop><stop offset=".834" stop-color="#b37774"></stop><stop offset=".963" stop-color="#ed8c5c"></stop><stop offset="1" stop-color="#ff9254"></stop></linearGradient><path fill="url(#j)" d="M555.56 359.3c.42 11.3 8.96 20.17 19.09 19.79l29.73-1.1c10.12-.37 18-9.84 17.58-21.14-.42-11.3-8.96-20.17-19.09-19.79l-29.73 1.1c-10.13.37-18 9.83-17.58 21.14zm11.2-.41c-.25-6.71 4.99-12.35 11.7-12.6l19.7-.73c6.71-.25 12.35 4.99 12.59 11.7.25 6.71-4.99 12.35-11.7 12.6l-19.7.73c-6.71.24-12.34-5-12.59-11.7z"></path><linearGradient id="k" x1="298.229" x2="638.552" y1="527.468" y2="305.185" gradientUnits="userSpaceOnUse"><stop offset="0" stop-color="#1dacff"></stop><stop offset=".112" stop-color="#20a9fb"></stop><stop offset=".226" stop-color="#28a0ef"></stop><stop offset=".342" stop-color="#3690da"></stop><stop offset=".458" stop-color="#497bbe"></stop><stop offset=".574" stop-color="#625f99"></stop><stop offset=".585" stop-color="#655c95"></stop><stop offset=".637" stop-color="#6f5f91"></stop><stop offset=".723" stop-color="#896886"></stop><stop offset=".834" stop-color="#b37774"></stop><stop offset=".963" stop-color="#ed8c5c"></stop><stop offset="1" stop-color="#ff9254"></stop></linearGradient><path fill="url(#k)" d="M521.8 366.03c.47 3.5 4.09 5.91 8.07 5.37l45.07-6.09c3.98-.54 6.83-3.82 6.36-7.32-.47-3.51-4.09-5.91-8.07-5.37l-45.07 6.09c-3.99.54-6.83 3.82-6.36 7.32z"></path><linearGradient id="l" x1="319.445" x2="659.768" y1="559.951" y2="337.668" gradientUnits="userSpaceOnUse"><stop offset="0" stop-color="#1dacff"></stop><stop offset=".112" stop-color="#20a9fb"></stop><stop offset=".226" stop-color="#28a0ef"></stop><stop offset=".342" stop-color="#3690da"></stop><stop offset=".458" stop-color="#497bbe"></stop><stop offset=".574" stop-color="#625f99"></stop><stop offset=".585" stop-color="#655c95"></stop><stop offset=".637" stop-color="#6f5f91"></stop><stop offset=".723" stop-color="#896886"></stop><stop offset=".834" stop-color="#b37774"></stop><stop offset=".963" stop-color="#ed8c5c"></stop><stop offset="1" stop-color="#ff9254"></stop></linearGradient><path fill="url(#l)" d="M593.14 359.17c-.29 3.52 2.72 6.65 6.73 6.98l45.33 3.75c4.01.33 7.49-2.26 7.78-5.78.29-3.52-2.72-6.65-6.73-6.98l-45.33-3.75c-4.01-.33-7.49 2.26-7.78 5.78z"></path><linearGradient id="m" x1="209.037" x2="549.36" y1="390.913" y2="168.629" gradientUnits="userSpaceOnUse"><stop offset="0" stop-color="#1dc4ff"></stop><stop offset=".112" stop-color="#20c0fb"></stop><stop offset=".226" stop-color="#28b4ef"></stop><stop offset=".342" stop-color="#36a0da"></stop><stop offset=".458" stop-color="#4984be"></stop><stop offset=".574" stop-color="#626099"></stop><stop offset=".585" stop-color="#655c95"></stop><stop offset=".637" stop-color="#6f5f91"></stop><stop offset=".723" stop-color="#896886"></stop><stop offset=".834" stop-color="#b37774"></stop><stop offset=".963" stop-color="#ed8c5c"></stop><stop offset="1" stop-color="#ff9254"></stop></linearGradient><path fill="url(#m)" d="M201.81 367.74c-.75 13.39 8.36 24.79 20.35 25.47l35.21 1.98c11.99.68 22.33-9.63 23.08-23.02.75-13.39-8.36-24.79-20.35-25.47l-35.22-1.98c-11.98-.68-22.32 9.63-23.07 23.02zm13.27.75c.45-7.95 7.25-14.03 15.2-13.58l23.33 1.31c7.95.45 14.03 7.25 13.58 15.2-.45 7.95-7.25 14.03-15.2 13.58l-23.34-1.31c-7.94-.45-14.02-7.26-13.57-15.2z"></path><linearGradient id="n" x1="244.847" x2="585.171" y1="445.739" y2="223.456" gradientUnits="userSpaceOnUse"><stop offset="0" stop-color="#1dc4ff"></stop><stop offset=".112" stop-color="#20c0fb"></stop><stop offset=".226" stop-color="#28b4ef"></stop><stop offset=".342" stop-color="#36a0da"></stop><stop offset=".458" stop-color="#4984be"></stop><stop offset=".574" stop-color="#626099"></stop><stop offset=".585" stop-color="#655c95"></stop><stop offset=".637" stop-color="#6f5f91"></stop><stop offset=".723" stop-color="#896886"></stop><stop offset=".834" stop-color="#b37774"></stop><stop offset=".963" stop-color="#ed8c5c"></stop><stop offset="1" stop-color="#ff9254"></stop></linearGradient><path fill="url(#n)" d="M312.64 369.63c-2.2 13.23 5.63 25.55 17.48 27.52l34.79 5.78c11.85 1.97 23.24-7.16 25.44-20.39 2.2-13.23-5.63-25.55-17.48-27.52l-34.8-5.78c-11.84-1.97-23.23 7.16-25.43 20.39zm13.11 2.18c1.3-7.86 8.73-13.16 16.58-11.86l23.06 3.83c7.85 1.3 13.16 8.73 11.86 16.58-1.3 7.85-8.72 13.16-16.58 11.86l-23.06-3.83c-7.86-1.31-13.16-8.73-11.86-16.58z"></path><linearGradient id="o" x1="223.211" x2="563.533" y1="412.614" y2="190.331" gradientUnits="userSpaceOnUse"><stop offset="0" stop-color="#1dc4ff"></stop><stop offset=".112" stop-color="#20c0fb"></stop><stop offset=".226" stop-color="#28b4ef"></stop><stop offset=".342" stop-color="#36a0da"></stop><stop offset=".458" stop-color="#4984be"></stop><stop offset=".574" stop-color="#626099"></stop><stop offset=".585" stop-color="#655c95"></stop><stop offset=".637" stop-color="#6f5f91"></stop><stop offset=".723" stop-color="#896886"></stop><stop offset=".834" stop-color="#b37774"></stop><stop offset=".963" stop-color="#ed8c5c"></stop><stop offset="1" stop-color="#ff9254"></stop></linearGradient><path fill="url(#o)" d="M248.49 372c-.1 4.19 3.68 7.68 8.44 7.8l53.91 1.32c4.76.12 8.71-3.19 8.81-7.38.1-4.19-3.67-7.68-8.44-7.8l-53.91-1.32c-4.77-.12-8.71 3.18-8.81 7.38z"></path><linearGradient id="p" x1="262.135" x2="602.456" y1="472.206" y2="249.924" gradientUnits="userSpaceOnUse"><stop offset="0" stop-color="#1dc4ff"></stop><stop offset=".112" stop-color="#20c0fb"></stop><stop offset=".226" stop-color="#28b4ef"></stop><stop offset=".342" stop-color="#36a0da"></stop><stop offset=".458" stop-color="#4984be"></stop><stop offset=".574" stop-color="#626099"></stop><stop offset=".585" stop-color="#655c95"></stop><stop offset=".637" stop-color="#6f5f91"></stop><stop offset=".723" stop-color="#896886"></stop><stop offset=".834" stop-color="#b37774"></stop><stop offset=".963" stop-color="#ed8c5c"></stop><stop offset="1" stop-color="#ff9254"></stop></linearGradient><path fill="url(#p)" d="M360.65 377.69c-.87 4.1 2.19 8.23 6.85 9.23l52.74 11.27c4.66 1 9.15-1.52 10.02-5.62.88-4.1-2.19-8.23-6.85-9.23l-52.74-11.27c-4.66-.99-9.14 1.52-10.02 5.62z"></path><linearGradient id="q" x1="278.553" x2="618.877" y1="497.345" y2="275.062" gradientUnits="userSpaceOnUse"><stop offset="0" stop-color="#1dacff"></stop><stop offset=".112" stop-color="#20a9fb"></stop><stop offset=".226" stop-color="#28a0ef"></stop><stop offset=".342" stop-color="#3690da"></stop><stop offset=".458" stop-color="#497bbe"></stop><stop offset=".574" stop-color="#625f99"></stop><stop offset=".585" stop-color="#655c95"></stop><stop offset=".637" stop-color="#6f5f91"></stop><stop offset=".723" stop-color="#896886"></stop><stop offset=".834" stop-color="#b37774"></stop><stop offset=".963" stop-color="#ed8c5c"></stop><stop offset="1" stop-color="#ff9254"></stop></linearGradient><path fill="url(#q)" d="M416.42 398.54c3.71 10.25 14.16 15.86 23.34 12.54l26.95-9.76c9.18-3.32 13.61-14.33 9.9-24.58-3.71-10.25-14.16-15.86-23.34-12.54l-26.95 9.76c-9.18 3.33-13.62 14.33-9.9 24.58zm10.15-3.68c-2.2-6.09.94-12.8 7.03-15.01l17.86-6.47c6.08-2.2 12.8.94 15 7.03 2.2 6.08-.94 12.8-7.03 15l-17.86 6.47c-6.08 2.21-12.8-.93-15-7.02z"></path><linearGradient id="r" x1="283.866" x2="624.19" y1="505.479" y2="283.195" gradientUnits="userSpaceOnUse"><stop offset="0" stop-color="#1dacff"></stop><stop offset=".112" stop-color="#20a9fb"></stop><stop offset=".226" stop-color="#28a0ef"></stop><stop offset=".342" stop-color="#3690da"></stop><stop offset=".458" stop-color="#497bbe"></stop><stop offset=".574" stop-color="#625f99"></stop><stop offset=".585" stop-color="#655c95"></stop><stop offset=".637" stop-color="#6f5f91"></stop><stop offset=".723" stop-color="#896886"></stop><stop offset=".834" stop-color="#b37774"></stop><stop offset=".963" stop-color="#ed8c5c"></stop><stop offset="1" stop-color="#ff9254"></stop></linearGradient><path fill="url(#r)" d="M453.64 385.14c1.01 3.25 4.83 4.96 8.53 3.81l41.85-13.02c3.7-1.15 5.88-4.72 4.86-7.97-1.01-3.25-4.83-4.96-8.53-3.81l-41.85 13.01c-3.69 1.15-5.87 4.72-4.86 7.98z"></path><linearGradient id="s" x1="189.237" x2="529.56" y1="360.598" y2="138.316" gradientUnits="userSpaceOnUse"><stop offset="0" stop-color="#1dc4ff"></stop><stop offset=".112" stop-color="#20c0fb"></stop><stop offset=".226" stop-color="#28b4ef"></stop><stop offset=".342" stop-color="#36a0da"></stop><stop offset=".458" stop-color="#4984be"></stop><stop offset=".574" stop-color="#626099"></stop><stop offset=".585" stop-color="#655c95"></stop><stop offset=".637" stop-color="#6f5f91"></stop><stop offset=".723" stop-color="#896886"></stop><stop offset=".834" stop-color="#b37774"></stop><stop offset=".963" stop-color="#ed8c5c"></stop><stop offset="1" stop-color="#ff9254"></stop></linearGradient><path fill="url(#s)" d="m162.66 362.56.83 5.81c6.29-3.01 11.67 3.13 14.67 9.41 3.01 6.29.35 13.82-5.94 16.82l-18.45 8.83c-6.28 3.01-13.82.35-16.82-5.94-3.01-6.29-5.99-15.14 1.48-27.18 0 0-1.94-2.21-4.85-3.18-1.42-.48-5.12-.97-5.12-.97-9.14 11.21-7.07 25.77-2.01 36.36 5.06 10.59 16.86 15.49 26.34 10.96l27.85-13.32c9.48-4.54 13.07-16.8 8-27.38-5.06-10.59-17.9-19.45-27.38-14.92l1.4 4.7z"></path><linearGradient id="t" x1="199.597" x2="539.92" y1="376.461" y2="154.178" gradientUnits="userSpaceOnUse"><stop offset="0" stop-color="#1dc4ff"></stop><stop offset=".112" stop-color="#20c0fb"></stop><stop offset=".226" stop-color="#28b4ef"></stop><stop offset=".342" stop-color="#36a0da"></stop><stop offset=".458" stop-color="#4984be"></stop><stop offset=".574" stop-color="#626099"></stop><stop offset=".585" stop-color="#655c95"></stop><stop offset=".637" stop-color="#6f5f91"></stop><stop offset=".723" stop-color="#896886"></stop><stop offset=".834" stop-color="#b37774"></stop><stop offset=".963" stop-color="#ed8c5c"></stop><stop offset="1" stop-color="#ff9254"></stop></linearGradient><path fill="url(#t)" d="M64.27 445.59c2.09 13.24 13.41 22.46 25.28 20.59l34.84-5.51c11.87-1.87 19.79-14.13 17.69-27.38-2.09-13.25-13.41-22.47-25.28-20.59l-34.84 5.51c-11.86 1.87-19.78 14.13-17.69 27.38zm13.13-2.08c-1.24-7.87 4.12-15.25 11.99-16.49l23.09-3.65c7.86-1.24 15.24 4.12 16.48 11.99 1.24 7.86-4.12 15.25-11.98 16.49l-23.09 3.65c-7.87 1.24-15.25-4.12-16.49-11.99z"></path><linearGradient id="u" x1="188.299" x2="528.623" y1="359.162" y2="136.879" gradientUnits="userSpaceOnUse"><stop offset="0" stop-color="#1dc4ff"></stop><stop offset=".112" stop-color="#20c0fb"></stop><stop offset=".226" stop-color="#28b4ef"></stop><stop offset=".342" stop-color="#36a0da"></stop><stop offset=".458" stop-color="#4984be"></stop><stop offset=".574" stop-color="#626099"></stop><stop offset=".585" stop-color="#655c95"></stop><stop offset=".637" stop-color="#6f5f91"></stop><stop offset=".723" stop-color="#896886"></stop><stop offset=".834" stop-color="#b37774"></stop><stop offset=".963" stop-color="#ed8c5c"></stop><stop offset="1" stop-color="#ff9254"></stop></linearGradient><path fill="url(#u)" d="M55.22 459.86c-2.09-13.25-13.41-22.47-25.28-20.59l-16.84 2.66c-.24 3.35-.47 6.71-.67 10.1l13.19-2.08c7.86-1.24 15.24 4.12 16.48 11.99 1.24 7.86-4.12 15.25-11.98 16.49l-19.06 3.02c-.07 2.04-.13 4.09-.18 6.14 0 0 2.06 1.06 6.19 2.9l20.48-3.24c11.84-1.89 19.76-14.15 17.67-27.39z"></path><linearGradient id="v" x1="193.47" x2="533.792" y1="367.08" y2="144.797" gradientUnits="userSpaceOnUse"><stop offset="0" stop-color="#1dc4ff"></stop><stop offset=".112" stop-color="#20c0fb"></stop><stop offset=".226" stop-color="#28b4ef"></stop><stop offset=".342" stop-color="#36a0da"></stop><stop offset=".458" stop-color="#4984be"></stop><stop offset=".574" stop-color="#626099"></stop><stop offset=".585" stop-color="#655c95"></stop><stop offset=".637" stop-color="#6f5f91"></stop><stop offset=".723" stop-color="#896886"></stop><stop offset=".834" stop-color="#b37774"></stop><stop offset=".963" stop-color="#ed8c5c"></stop><stop offset="1" stop-color="#ff9254"></stop></linearGradient><path fill="url(#v)" d="M26.67 464.58c1.26 4 5.97 6.07 10.51 4.64l51.42-16.25c4.54-1.44 7.2-5.84 5.94-9.84-1.26-4-5.97-6.07-10.52-4.64L32.6 454.74c-4.53 1.44-7.19 5.84-5.93 9.84z"></path><linearGradient id="w" x1="198.785" x2="539.107" y1="375.216" y2="152.934" gradientUnits="userSpaceOnUse"><stop offset="0" stop-color="#1dc4ff"></stop><stop offset=".112" stop-color="#20c0fb"></stop><stop offset=".226" stop-color="#28b4ef"></stop><stop offset=".342" stop-color="#36a0da"></stop><stop offset=".458" stop-color="#4984be"></stop><stop offset=".574" stop-color="#626099"></stop><stop offset=".585" stop-color="#655c95"></stop><stop offset=".637" stop-color="#6f5f91"></stop><stop offset=".723" stop-color="#896886"></stop><stop offset=".834" stop-color="#b37774"></stop><stop offset=".963" stop-color="#ed8c5c"></stop><stop offset="1" stop-color="#ff9254"></stop></linearGradient><path fill="url(#w)" d="M228.45 372.57c.41 3.65-2.62 6.98-6.76 7.45l-46.9 5.28c-4.14.47-7.84-2.11-8.25-5.76-.41-3.65 2.62-6.98 6.76-7.45l46.9-5.28c4.15-.47 7.84 2.11 8.25 5.76z"></path><linearGradient id="x" x1="198.182" x2="538.505" y1="374.294" y2="152.011" gradientUnits="userSpaceOnUse"><stop offset="0" stop-color="#1dc4ff"></stop><stop offset=".112" stop-color="#20c0fb"></stop><stop offset=".226" stop-color="#28b4ef"></stop><stop offset=".342" stop-color="#36a0da"></stop><stop offset=".458" stop-color="#4984be"></stop><stop offset=".574" stop-color="#626099"></stop><stop offset=".585" stop-color="#655c95"></stop><stop offset=".637" stop-color="#6f5f91"></stop><stop offset=".723" stop-color="#896886"></stop><stop offset=".834" stop-color="#b37774"></stop><stop offset=".963" stop-color="#ed8c5c"></stop><stop offset="1" stop-color="#ff9254"></stop></linearGradient><path fill="url(#x)" d="M147.52 391.7c3.12 1.94 3.85 6.38 1.65 9.92l-24.95 40.06c-2.21 3.54-6.52 4.84-9.63 2.9-3.11-1.94-3.85-6.38-1.65-9.92l24.95-40.06c2.2-3.54 6.51-4.84 9.63-2.9z"></path><linearGradient id="y" x1="480.962" x2="559.558" y1="398.144" y2="398.144" gradientTransform="rotate(4.342 -942.96 103.654)" gradientUnits="userSpaceOnUse"><stop offset="0" stop-color="#270036"></stop><stop offset=".594" stop-color="#4f008b"></stop><stop offset="1" stop-color="#4c24b1"></stop></linearGradient><path fill="url(#y)" d="M454.41 509.94c.64 13.39 10.89 23.79 22.89 23.21l35.23-1.69c12-.57 21.21-11.9 20.57-25.29-.64-13.4-10.89-23.79-22.89-23.22l-35.23 1.69c-12 .58-21.21 11.9-20.57 25.3zm13.28-.63c-.38-7.96 5.75-14.71 13.71-15.09l23.34-1.12c7.95-.38 14.7 5.76 15.08 13.71.38 7.95-5.75 14.71-13.71 15.09l-23.35 1.12c-7.94.37-14.69-5.76-15.07-13.71z"></path><linearGradient id="z" x1="662.595" x2="741.19" y1="-46.442" y2="-46.442" gradientTransform="rotate(-6.486 5062.708 632.935)" gradientUnits="userSpaceOnUse"><stop offset="0" stop-color="#270036"></stop><stop offset=".594" stop-color="#4f008b"></stop><stop offset="1" stop-color="#4c24b1"></stop></linearGradient><path fill="url(#z)" d="M614.88 459.04c3.14 13.03 15.16 21.32 26.84 18.51l34.29-8.27c11.68-2.81 18.6-15.67 15.45-28.7-3.14-13.04-15.16-21.32-26.84-18.51l-34.29 8.27c-11.68 2.81-18.6 15.66-15.45 28.7zm12.92-3.11c-1.87-7.74 2.89-15.53 10.63-17.39l22.72-5.48c7.74-1.87 15.52 2.89 17.39 10.63 1.87 7.74-2.89 15.52-10.63 17.39l-22.72 5.48c-7.74 1.86-15.53-2.9-17.39-10.63z"></path><linearGradient id="A" x1="726.973" x2="805.569" y1="365.386" y2="365.386" gradientTransform="rotate(4.974 -105.687 104.45)" gradientUnits="userSpaceOnUse"><stop offset="0" stop-color="#270036"></stop><stop offset=".594" stop-color="#4f008b"></stop><stop offset="1" stop-color="#4c24b1"></stop></linearGradient><path fill="url(#A)" d="M700.98 441.44c.49 13.4 10.63 23.91 22.63 23.47l35.25-1.3c12-.44 21.33-11.66 20.84-25.07-.49-13.4-10.63-23.91-22.63-23.47l-35.25 1.3c-12 .45-21.34 11.67-20.84 25.07zm13.28-.49c-.29-7.96 5.92-14.64 13.87-14.94l23.36-.86c7.95-.29 14.64 5.92 14.93 13.87.3 7.95-5.91 14.64-13.87 14.93l-23.36.86c-7.96.31-14.64-5.9-14.93-13.86z"></path><linearGradient id="B" x1="393.948" x2="472.545" y1="412.95" y2="412.95" gradientTransform="rotate(4.342 -942.96 103.654)" gradientUnits="userSpaceOnUse"><stop offset="0" stop-color="#270036"></stop><stop offset=".594" stop-color="#4f008b"></stop><stop offset="1" stop-color="#4c24b1"></stop></linearGradient><path fill="url(#B)" d="M366.53 518.11c.64 13.39 10.89 23.79 22.89 23.22l35.23-1.69c12-.57 21.21-11.9 20.57-25.29-.64-13.4-10.89-23.79-22.89-23.22l-35.23 1.69c-12.01.57-21.22 11.9-20.57 25.29zm13.27-.63c-.38-7.96 5.75-14.71 13.71-15.09l23.34-1.12c7.95-.38 14.7 5.76 15.08 13.71.38 7.95-5.75 14.71-13.71 15.09l-23.35 1.12c-7.93.38-14.69-5.76-15.07-13.71z"></path><linearGradient id="C" x1="394.869" x2="400.564" y1="414.008" y2="445.327" gradientTransform="rotate(-2.872 2101.227 -442.211)" gradientUnits="userSpaceOnUse"><stop offset="0" stop-color="#270036"></stop><stop offset=".594" stop-color="#4f008b"></stop><stop offset="1" stop-color="#4c24b1"></stop></linearGradient><path fill="url(#C)" d="M408.55 519.94c.56 4.15 4.84 7.01 9.57 6.37l53.44-7.22c4.72-.64 8.1-4.53 7.53-8.68-.56-4.16-4.84-7-9.57-6.37l-53.44 7.22c-4.72.64-8.09 4.52-7.53 8.68z"></path><linearGradient id="D" x1="650.503" x2="656.197" y1="356.23" y2="387.549" gradientTransform="rotate(-2.872 2101.227 -442.211)" gradientUnits="userSpaceOnUse"><stop offset="0" stop-color="#270036"></stop><stop offset=".594" stop-color="#4f008b"></stop><stop offset="1" stop-color="#4c24b1"></stop></linearGradient><path fill="url(#D)" d="M660.95 449.43c.56 4.15 4.84 7.01 9.57 6.37l53.44-7.22c4.72-.64 8.1-4.53 7.53-8.68-.56-4.16-4.84-7-9.57-6.37l-53.44 7.22c-4.72.63-8.09 4.52-7.53 8.68z"></path><linearGradient id="E" x1="764.395" x2="771.36" y1="423.587" y2="461.892" gradientUnits="userSpaceOnUse"><stop offset="0" stop-color="#270036"></stop><stop offset=".594" stop-color="#4f008b"></stop><stop offset="1" stop-color="#4c24b1"></stop></linearGradient><path fill="url(#E)" d="m789.18 437.29-34.43-2.85c-4.75-.39-8.88 2.68-9.22 6.86-.34 4.18 3.22 7.88 7.97 8.27l38.03 3.15c-.53-4.99-1.31-10.14-2.35-15.43z"></path><linearGradient id="F" x1="302.612" x2="381.205" y1="491.512" y2="491.512" gradientTransform="rotate(6.686 105.462 273.795)" gradientUnits="userSpaceOnUse"><stop offset="0" stop-color="#270036"></stop><stop offset=".594" stop-color="#4f008b"></stop><stop offset="1" stop-color="#4c24b1"></stop></linearGradient><path fill="url(#F)" d="M275.55 517.85c.09 13.41 9.91 24.22 21.92 24.13l35.27-.24c12.01-.08 21.67-11.02 21.58-24.43-.09-13.41-9.91-24.22-21.92-24.14l-35.27.24c-12.01.09-21.67 11.03-21.58 24.44zm13.29-.09c-.06-7.97 6.35-14.46 14.32-14.51l23.37-.16c7.96-.06 14.46 6.35 14.51 14.31.06 7.96-6.35 14.46-14.31 14.51l-23.37.16c-7.97.06-14.47-6.35-14.52-14.31z"></path><linearGradient id="G" x1="294.271" x2="299.965" y1="479.871" y2="511.184" gradientTransform="matrix(1 -.0091 .0091 1 51.022 23.97)" gradientUnits="userSpaceOnUse"><stop offset="0" stop-color="#270036"></stop><stop offset=".594" stop-color="#4f008b"></stop><stop offset="1" stop-color="#4c24b1"></stop></linearGradient><path fill="url(#G)" d="M317.46 521.39c.39 4.17 4.55 7.2 9.3 6.75l53.69-5.02c4.74-.44 8.28-4.19 7.88-8.36-.39-4.18-4.55-7.2-9.3-6.76l-53.69 5.02c-4.74.45-8.27 4.2-7.88 8.37z"></path><linearGradient id="H" x1="213.145" x2="291.738" y1="615.91" y2="615.91" gradientTransform="rotate(11.128 745.523 441.272)" gradientUnits="userSpaceOnUse"><stop offset="0" stop-color="#270036"></stop><stop offset=".594" stop-color="#4f008b"></stop><stop offset="1" stop-color="#4c24b1"></stop></linearGradient><path fill="url(#H)" d="M188.72 514.68c-.95 13.38 8 24.91 19.98 25.76l35.18 2.49c11.98.85 22.46-9.31 23.41-22.69.95-13.38-8-24.91-19.99-25.76L212.13 492c-11.98-.85-22.47 9.31-23.41 22.68zm13.25.94c.56-7.95 7.45-13.93 15.4-13.36l23.31 1.65c7.94.56 13.92 7.45 13.36 15.39-.56 7.94-7.45 13.93-15.39 13.36l-23.32-1.65c-7.94-.56-13.92-7.45-13.36-15.39z"></path><linearGradient id="I" x1="154.509" x2="233.103" y1="819.871" y2="819.871" gradientTransform="rotate(18.933 1118.891 493.815)" gradientUnits="userSpaceOnUse"><stop offset="0" stop-color="#270036"></stop><stop offset=".594" stop-color="#4f008b"></stop><stop offset="1" stop-color="#4c24b1"></stop></linearGradient><path fill="url(#I)" d="M99.53 494.05c-2.75 13.12 4.55 25.77 16.3 28.23l34.52 7.24c11.76 2.47 23.52-6.18 26.27-19.3 2.75-13.13-4.55-25.77-16.31-28.23l-34.52-7.24c-11.74-2.46-23.51 6.17-26.26 19.3zm13.01 2.73c1.63-7.8 9.27-12.79 17.07-11.15l22.87 4.8c7.79 1.63 12.78 9.27 11.14 17.06-1.63 7.79-9.27 12.79-17.06 11.15l-22.88-4.8c-7.79-1.63-12.78-9.27-11.14-17.06z"></path><linearGradient id="J" x1="189.895" x2="195.589" y1="592.096" y2="623.412" gradientTransform="rotate(3.916 1518.693 1630.02)" gradientUnits="userSpaceOnUse"><stop offset="0" stop-color="#270036"></stop><stop offset=".594" stop-color="#4f008b"></stop><stop offset="1" stop-color="#4c24b1"></stop></linearGradient><path fill="url(#J)" d="M230.22 521.46c.07 4.19 3.98 7.53 8.75 7.45l53.92-.85c4.77-.07 8.57-3.54 8.51-7.73-.06-4.19-3.98-7.53-8.75-7.46l-53.92.85c-4.76.09-8.57 3.55-8.51 7.74z"></path><linearGradient id="K" x1="112.208" x2="117.902" y1="869.199" y2="900.516" gradientTransform="rotate(13.975 1660.11 977.564)" gradientUnits="userSpaceOnUse"><stop offset="0" stop-color="#270036"></stop><stop offset=".594" stop-color="#4f008b"></stop><stop offset="1" stop-color="#4c24b1"></stop></linearGradient><path fill="url(#K)" d="M147.96 509.96c-.67 4.14 2.61 8.11 7.31 8.87l53.24 8.59c4.7.76 9.06-1.98 9.73-6.12.67-4.14-2.6-8.11-7.31-8.87l-53.24-8.58c-4.7-.78-9.05 1.97-9.73 6.11z"></path><linearGradient id="L" x1="89.101" x2="93.445" y1="491.269" y2="515.16" gradientUnits="userSpaceOnUse"><stop offset="0" stop-color="#270036"></stop><stop offset=".594" stop-color="#4f008b"></stop><stop offset="1" stop-color="#4c24b1"></stop></linearGradient><path fill="url(#L)" d="m83.83 513.47 34.29-6.59c4.68-.9 7.83-4.97 7.04-9.08-.79-4.12-5.23-6.73-9.91-5.83L62.3 502.15c-2.3.44-4.22 1.65-5.5 3.25 7.97 2.59 16.98 5.31 27.03 8.07z"></path><linearGradient id="M" x1="562.281" x2="582.216" y1="440.585" y2="492.083" gradientUnits="userSpaceOnUse"><stop offset="0" stop-color="#270036"></stop><stop offset=".594" stop-color="#4f008b"></stop><stop offset="1" stop-color="#4c24b1"></stop></linearGradient><path fill="url(#M)" d="m578.57 444.31.83 5.81c6.29-3.01 11.67 3.13 14.67 9.41 3.01 6.29.35 13.82-5.94 16.82l-18.45 8.83c-6.28 3.01-13.82.35-16.82-5.94s-5.99-15.14 1.48-27.18c0 0-1.94-2.21-4.85-3.18-1.42-.48-5.12-.97-5.12-.97-9.14 11.21-7.07 25.77-2.01 36.36 5.06 10.59 16.86 15.49 26.34 10.96l27.85-13.32c9.48-4.54 13.07-16.8 8-27.38-5.06-10.59-17.9-19.45-27.38-14.92l1.4 4.7z"></path><linearGradient id="N" x1="575.656" x2="581.76" y1="444.935" y2="444.935" gradientUnits="userSpaceOnUse"><stop offset="0" stop-color="#270036"></stop><stop offset=".594" stop-color="#4f008b"></stop><stop offset="1" stop-color="#4c24b1"></stop></linearGradient><path fill="url(#N)" d="M581.56 444.35c.6 2.96-.18 5.62-1.75 5.94-1.57.32-3.34-1.82-3.94-4.78-.6-2.96.18-5.62 1.75-5.94 1.57-.31 3.33 1.82 3.94 4.78z"></path><linearGradient id="O" x1="582.42" x2="644.4" y1="457.806" y2="457.806" gradientUnits="userSpaceOnUse"><stop offset="0" stop-color="#270036"></stop><stop offset=".594" stop-color="#4f008b"></stop><stop offset="1" stop-color="#4c24b1"></stop></linearGradient><path fill="url(#O)" d="M644.36 454.32c.41 3.65-2.62 6.98-6.76 7.45l-46.9 5.28c-4.14.47-7.84-2.11-8.25-5.76-.41-3.65 2.62-6.98 6.76-7.45l46.9-5.28c4.15-.46 7.84 2.11 8.25 5.76z"></path><linearGradient id="P" x1="623.541" x2="662.318" y1="1300.156" y2="1300.156" gradientTransform="rotate(24.722 2434.762 656.073)" gradientUnits="userSpaceOnUse"><stop offset="0" stop-color="#270036"></stop><stop offset=".594" stop-color="#4f008b"></stop><stop offset="1" stop-color="#4c24b1"></stop></linearGradient><path fill="url(#P)" d="M563.78 474.59c2.02 3.06.83 7.41-2.65 9.7l-39.42 25.95c-3.49 2.29-7.94 1.67-9.96-1.4-2.02-3.06-.83-7.41 2.65-9.7l39.42-25.95c3.48-2.29 7.94-1.67 9.96 1.4z"></path><linearGradient id="Q" x1="270.932" x2="590.849" y1="289.861" y2="289.861" gradientTransform="rotate(-1.719 -1175.785 262.54)" gradientUnits="userSpaceOnUse"><stop offset="0" stop-color="#88cfda"></stop><stop offset=".008" stop-color="#89cfd9"></stop><stop offset=".478" stop-color="#c8d9bb"></stop><stop offset=".822" stop-color="#f0dfa7"></stop><stop offset="1" stop-color="#ffe1a0"></stop></linearGradient><path fill="url(#Q)" d="M287.15 99.42c274.63 21.42 308.31 308.41 308.31 308.41s5.82-26.46-28.57-116.42C532.5 201.45 426.38 71.73 265.98 75.51" opacity=".6"></path><linearGradient id="R" x1="113.785" x2="396.573" y1="223.645" y2="223.645" gradientUnits="userSpaceOnUse"><stop offset="0" stop-color="#88cfda"></stop><stop offset=".008" stop-color="#89cfd9"></stop><stop offset=".478" stop-color="#c8d9bb"></stop><stop offset=".822" stop-color="#f0dfa7"></stop><stop offset="1" stop-color="#ffe1a0"></stop></linearGradient><path fill="url(#R)" d="M202.11 331.27s-48.28-95.03 5.36-164c52.65-67.69 189.1-14.81 189.1-14.81s-80.57-51.7-167.64-31.94c-124.92 28.36-114.96 163.24-114.96 163.24"></path><linearGradient id="S" x1="485.779" x2="524.88" y1="237.499" y2="237.499" gradientUnits="userSpaceOnUse"><stop offset="0" stop-color="#000036"></stop><stop offset=".738" stop-color="#272054"></stop><stop offset="1" stop-color="#3893e0"></stop></linearGradient><path fill="url(#S)" d="M485.78 231.77s2.03 4.41 3.73 4.75c1.7.34 7.23-1.58 8.93.23 1.7 1.81.68 7.12 1.92 8.25 1.24 1.13 4.63 2.49 4.63 2.49s6.1-2.03 7.23-1.58c1.13.45 4.63 5.65 5.08 6.89l.45 1.24s3.84.68 5.99-6.33c2.15-7.01.9-10.51-.9-14.12-1.81-3.62-4.75-6.89-4.75-6.89s-2.94-7.34-12.88-5.42c-9.94 1.91-19.43 10.49-19.43 10.49z"></path><linearGradient id="T" x1="483.294" x2="517.756" y1="248.653" y2="248.653" gradientUnits="userSpaceOnUse"><stop offset="0" stop-color="#a1baff"></stop><stop offset=".225" stop-color="#fff"></stop></linearGradient><path fill="url(#T)" d="M512.22 245.9c-1.13-.45-7.23 1.58-7.23 1.58s-3.39-1.36-4.63-2.49c-1.24-1.13-.23-6.44-1.92-8.25-1.69-1.81-7.23.11-8.93-.23-1.69-.34-3.73-4.75-3.73-4.75l-2.49.83s.15 9.79.53 13.48c.38 3.69.07 12.28 1.51 15.29 1.43 3.01 2.64 3.47 4.29 3.62 1.66.15 4.29-1.73 4.75-2.34.45-.6-.3-.75-.98-1.88-.68-1.13.6-1.81.98-1.66.38.15 1.43 3.16 1.88 3.39.45.23 1.81-.23 1.81-.23s1.05 3.01 2.18 3.24c1.13.23 4.6-4.14 5.2-4.97.6-.83 2.49-.75 3.99-.75 1.51 0 8.32-5.76 8.32-5.76l-.45-1.24c-.45-1.23-3.95-6.43-5.08-6.88z"></path><linearGradient id="U" x1="396.481" x2="489.622" y1="270.375" y2="270.375" gradientUnits="userSpaceOnUse"><stop offset="0" stop-color="#311a36"></stop><stop offset="1" stop-color="#8660db"></stop></linearGradient><path fill="url(#U)" d="M485.33 261.38c-1.43-3.01-1.13-11.6-1.51-15.29-.38-3.69-.53-13.48-.53-13.48s.45-2.98-.79-2.64c-1.24.34-5.65 1.02-7.12.56-1.47-.45-5.31-1.92-10.17-2.26-4.86-.34-20.23 5.76-28.14 10.06-7.91 4.29-16.04 11.75-21.13 18.19-5.08 6.44-6.89 9.6-11.86 13.79-4.97 4.18-8.36 7.01-7.46 8.7.9 1.7 3.05 5.76 13.45 11.41s20.45 10.73 25.99 15.25c5.54 4.52 5.88 5.76 7.12 6.55 1.24.79 7.46-.23 9.83-2.37 2.37-2.15 2.03-3.5 2.03-3.5s15.14-25.54 22.26-30.62c7.12-5.08 9.83-6.21 10.96-8.02 1.13-1.81 1.36-2.71 1.36-2.71-1.66-.16-2.86-.61-4.29-3.62z"></path><linearGradient id="V" x1="481.034" x2="517.821" y1="300.799" y2="314.339" gradientUnits="userSpaceOnUse"><stop offset="0" stop-color="#270036"></stop><stop offset=".594" stop-color="#4f008b"></stop><stop offset="1" stop-color="#746ba1"></stop></linearGradient><path fill="url(#V)" d="M493.76 315.24c-1.96-7.53-5.27-22.9-6.18-28.47-.9-5.57-.6-17.93-.6-17.93-.77.74-9.13 6.6-10.23 7.37-1.64 5.85-3.33 11.72-3.93 13.27-1.05 2.71 2.41 9.49 3.77 14.01 1.36 4.52 10.4 26.21 10.4 26.21s-.12.13-.34.34c0 0 1.17 1.51 2.75 3.2 1.58 1.7 2.03 5.54 2.03 5.54s1.7-.23 3.73-.79c2.03-.56 3.95-.56 3.95-.56s-3.39-14.66-5.35-22.19z"></path><linearGradient id="W" x1="503.38" x2="511.555" y1="368.395" y2="360.22" gradientUnits="userSpaceOnUse"><stop offset="0" stop-color="#311a36"></stop><stop offset="1" stop-color="#6f2c45"></stop></linearGradient><path fill="url(#W)" d="m499.57 360.13 60.66 60s2.95-.79 4.2-2.48c1.24-1.7 3.21-5.69 3.21-5.69l-112.9-104.25-4.88 3.85 49.71 48.57z"></path><linearGradient id="X" x1="563.192" x2="578.366" y1="410.521" y2="424.069" gradientUnits="userSpaceOnUse"><stop offset="0" stop-color="#271d60"></stop><stop offset=".385" stop-color="#c5d5ff"></stop><stop offset="1" stop-color="#2c4d54"></stop></linearGradient><path fill="url(#X)" d="m559.84 419.62-10.39 12.85.8 2.03 9.1 7.26s18.99-21.29 19.82-22.95c.83-1.66 10.52-20.17 10.52-20.17l-2.72-1.93-18.2 12.92-1.61 2.21c-.01 0-1.86 5.8-7.32 7.78z"></path><linearGradient id="Y" x1="383.991" x2="433.806" y1="310.83" y2="425.786" gradientUnits="userSpaceOnUse"><stop offset="0" stop-color="#270036"></stop><stop offset=".594" stop-color="#22003d"></stop><stop offset="1" stop-color="#272454"></stop></linearGradient><path fill="url(#Y)" d="M474.48 421c.6-2.26-1.36-6.78-3.31-10.85-1.96-4.07-4.07-13.11-5.27-18.68-1.2-5.57-2.26-25.46-5.12-35.56-2.86-10.09-16.57-35.55-17.33-38.12-.63-2.14.31-4.58.64-5.33-.4-.04-.71-.12-.91-.24-1.24-.79-1.58-2.03-7.12-6.55s-15.59-9.6-25.99-15.25c-6.63-3.6-9.9-6.56-11.64-8.67-.22.03-.34.04-.34.04s-5.88 7.68-6.93 13.86c-1.05 6.18-.15 12.35 1.05 17.63 1.21 5.27 5.57 23.05 5.57 23.05s-4.22 31.94-5.42 36.01c-1.21 4.07-7.68 22-8.74 24.41-1.05 2.41-1.21 6.18-1.21 6.18l-9.04 20.49s8.89 5.27 14.01 6.03c5.12.75 9.19-1.96 9.19-1.96s5.73-3.46 6.03-4.52c.3-1.06 12.35-25.01 14.76-30.58 2.41-5.57 6.93-15.82 6.93-15.82s10.85 27.27 18.98 46.85c8.14 19.59 9.19 20.49 9.19 20.49s5.42-1.66 12.05-4.67c6.63-3.01 8.59-4.52 8.59-4.52s0-2.56 1.51-4.37 2.11-2.86 2.11-2.86-2.84-4.23-2.24-6.49z"></path><linearGradient id="Z" x1="374.018" x2="406.205" y1="422.881" y2="341.645" gradientUnits="userSpaceOnUse"><stop offset="0" stop-color="#270036"></stop><stop offset=".594" stop-color="#22003d"></stop><stop offset="1" stop-color="#272454"></stop></linearGradient><path fill="url(#Z)" d="M393.28 306.8c-.25-1.12-1.16-3.8-2.55-6.69-.16 4.65.58 9.17 1.5 13.17 1.21 5.27 5.57 23.05 5.57 23.05s-4.22 31.94-5.42 36.01c-1.21 4.07-7.68 22-8.74 24.41-1.05 2.41-1.21 6.18-1.21 6.18l-9.04 20.49s8.89 5.27 14.01 6.03c5.12.75 9.19-1.96 9.19-1.96s5.73-3.46 6.03-4.52c.3-1.06 12.35-25.01 14.76-30.58 2.41-5.57 6.93-15.82 6.93-15.82s-16.42-37.51-20.64-46.25c-4.22-8.75-9.34-18.85-10.39-23.52z"></path><linearGradient id="aa" x1="393.518" x2="401.182" y1="451.693" y2="476.219" gradientUnits="userSpaceOnUse"><stop offset="0"></stop><stop offset=".594" stop-color="#4f008b"></stop><stop offset="1" stop-color="#4c24b1"></stop></linearGradient><path fill="url(#aa)" d="M403.75 426.12c-1.81-.29-4.02-.25-4.67-.23-1.31.88-2.49 1.59-2.49 1.59s-4.07 2.71-9.19 1.96c-5.12-.75-14.01-6.03-14.01-6.03s-3.09 7.68-3.31 8.81c-.23 1.13-.34 8.7-.34 8.7s2.6 2.71 8.25 1.92 9.04-3.05 9.04-3.05l.11-2.26s3.73 1.02 7.12.56c3.39-.45 12.88-5.08 13.11-6.55.22-1.46-1.48-5.08-3.62-5.42z"></path><linearGradient id="ab" x1="369.735" x2="407.382" y1="436.342" y2="436.342" gradientUnits="userSpaceOnUse"><stop offset="0" stop-color="#270036"></stop><stop offset=".594" stop-color="#4f008b"></stop><stop offset="1" stop-color="#4c24b1"></stop></linearGradient><path fill="url(#ab)" d="M377.98 442.84c5.65-.79 9.04-3.05 9.04-3.05l.11-2.26s3.73 1.02 7.12.56c3.39-.45 12.88-5.08 13.11-6.55.07-.46-.05-1.13-.31-1.85-1.37 2.21-4.62 3.65-8.17 5.01-4.41 1.7-11.64 1.13-11.64 1.13s-.79.68-5.88 1.58c-4.13.73-9.45-.17-11.55-.66-.06 2.12-.09 4.16-.09 4.16s2.61 2.73 8.26 1.93z"></path><linearGradient id="ac" x1="474.894" x2="487.135" y1="426.262" y2="465.435" gradientUnits="userSpaceOnUse"><stop offset="0"></stop><stop offset=".594" stop-color="#4f008b"></stop><stop offset="1" stop-color="#4c24b1"></stop></linearGradient><path fill="url(#ac)" d="M501.6 439.34c-8.81-1.58-11.07-1.24-13.67-2.6-2.6-1.36-11.19-9.26-11.19-9.26s-.6 1.05-2.11 2.86c-1.51 1.81-1.51 4.37-1.51 4.37s-1.96 1.51-8.59 4.52c-4.42 2.01-8.3 3.41-10.4 4.13v4.46s1.13 2.26 4.86 2.49c3.73.23 10.51-.11 10.51-.11l.23-2.15s5.54 1.58 10.17 2.49c4.63.9 24.63-1.13 26.44-1.92 1.81-.8 4.07-7.7-4.74-9.28z"></path><linearGradient id="ad" x1="454.141" x2="507.969" y1="447.504" y2="447.504" gradientUnits="userSpaceOnUse"><stop offset="0" stop-color="#311a36"></stop><stop offset="1" stop-color="#8660db"></stop></linearGradient><path fill="url(#ad)" d="M507.97 445.67c-4.14 1.45-16.11 2.76-22.08 3.05-6.89.34-15.82-2.71-15.82-2.71s-.45-.23-4.86-.23c-3.94 0-9.86-1.26-11.07-1.53v3.56s1.13 2.26 4.86 2.49c3.73.23 10.51-.11 10.51-.11l.23-2.15s5.54 1.58 10.17 2.49c4.63.9 24.63-1.13 26.44-1.92.68-.3 1.44-1.49 1.62-2.94z"></path><linearGradient id="ae" x1="474.42" x2="491.324" y1="340.39" y2="340.39" gradientUnits="userSpaceOnUse"><stop offset="0" stop-color="#a1baff"></stop><stop offset=".225" stop-color="#fff"></stop></linearGradient><path fill="url(#ae)" d="M490.98 336.77c-.51-1.41-1.52-3.25-2.32-4.38-.74-1.05-1.86-2.2-2.02-2.36-.93.9-3.61 3.33-6.29 4.18-2.49.79-4.56.05-5.43-.36l-.19.06s-.48 2-.25 3.73c.23 1.72.51 4.69 1.21 5.17.71.48 1.78.34 1.98.65.2.31.93 1.02 1.55 1.19.62.17.82.17.82.17s.79 2.06 1.98 2.23c1.19.17 1.38-.17 1.38-.17s.06 2.83.54 3.42c.48.59 1.58.54 2.09.11.51-.42 1.95-3.73 2.15-4.83.2-1.1.76-3.79.76-3.79l.82.76s.73-1.61 1.19-2.17c.45-.56.54-2.19.03-3.61z"></path><linearGradient id="af" x1="498.634" x2="446.506" y1="328.167" y2="241.866" gradientUnits="userSpaceOnUse"><stop offset="0" stop-color="#311a36"></stop><stop offset="1" stop-color="#8660db"></stop></linearGradient><path fill="url(#af)" d="M450.37 253.62s2.56 40.23 5.27 47.01c2.71 6.78 11 18.68 13.56 22.75 0 0 5.27 6.33 5.27 7.68v2.56s2.56 1.66 5.88.6c3.32-1.05 6.63-4.52 6.63-4.52s-9.04-21.69-10.4-26.21c-1.36-4.52-4.82-11.3-3.77-14.01 1.05-2.71 5.42-18.68 7.08-24.56 1.66-5.88.6-12.2.6-12.2s-3.77-4.82-14.31-4.67c-10.53.15-14.6 2.56-15.81 5.57z"></path><linearGradient id="ag" x1="489.762" x2="502.867" y1="348.722" y2="348.722" gradientUnits="userSpaceOnUse"><stop offset="0" stop-color="#a1baff"></stop><stop offset="1" stop-color="#fff"></stop></linearGradient><path fill="url(#ag)" d="m489.76 342.56 8.37 9.28.3 2.49s-1.88 1.66-2.18 2.86c-.3 1.2 0 2.94.68 2.94s1.58-1.73 2.56-2.19c.98-.45 2.26-1.13 2.49-2.03.23-.9 1.36-4.9.68-6.48s-3.09-7.61-3.24-8.89c-.15-1.28-.75-3.24-.75-3.24l-7.23 1.47s-.07 1.24-.68 2c-.61.76-1 1.79-1 1.79z"></path><linearGradient id="ah" x1="486.796" x2="491.655" y1="349.439" y2="349.439" gradientUnits="userSpaceOnUse"><stop offset="0" stop-color="#a1baff"></stop><stop offset=".439" stop-color="#fff"></stop></linearGradient><path fill="url(#ah)" d="M488.15 352.39s-1.36-.51-1.36-1.24 1.07-3.11 1.86-3.84 1.81-1.07 2.37-.62c.56.45.62 1.19.62 1.19s-1.36 1.24-1.92 2.03c-.55.79-1.57 2.48-1.57 2.48z"></path><linearGradient id="ai" x1="488.148" x2="494.602" y1="350.985" y2="350.985" gradientUnits="userSpaceOnUse"><stop offset="0" stop-color="#a1baff"></stop><stop offset=".439" stop-color="#fff"></stop></linearGradient><path fill="url(#ai)" d="M490.64 354.77c-.06-.17 1.58-2.99 2.26-3.62.68-.62 1.7-1.75 1.7-1.75s.11-1.47-.45-2.03c-.56-.57-2.49.51-2.49.51s-1.92 1.81-2.37 2.66c-.45.85-1.13 1.86-1.13 1.86s-.11 1.3.85 1.86c.95.56 1.63.51 1.63.51z"></path><linearGradient id="aj" x1="490.625" x2="497.001" y1="353.288" y2="353.288" gradientUnits="userSpaceOnUse"><stop offset="0" stop-color="#a1baff"></stop><stop offset=".439" stop-color="#fff"></stop></linearGradient><path fill="url(#aj)" d="M495.95 349.29s-.96-.17-1.58.4c-.62.56-1.86 1.92-2.15 2.37-.28.45-1.58 2.71-1.58 2.71s-.17 1.58.68 2.26c.85.68 2.49-.06 2.49-.06s1.53-3.05 2.43-4.35c.89-1.3 1.23-2.2-.29-3.33z"></path><linearGradient id="ak" x1="493.642" x2="497.485" y1="357.06" y2="357.06" gradientUnits="userSpaceOnUse"><stop offset="0" stop-color="#a1baff"></stop><stop offset=".439" stop-color="#fff"></stop></linearGradient><path fill="url(#ak)" d="M497.42 355.56s.34-1.47-.51-1.87c-.85-.4-2.09 1.24-2.09 1.24s-1.69 3.39-1.02 4.8c.68 1.41 3.13.4 3.13.4s-1.22-1.58-.68-2.94c.55-1.35 1.17-1.63 1.17-1.63z"></path><linearGradient id="al" x1="359.474" x2="307.869" y1="198.175" y2="201.752" gradientUnits="userSpaceOnUse"><stop offset="0" stop-color="#a1baff"></stop><stop offset=".225" stop-color="#fff"></stop></linearGradient><path fill="url(#al)" d="M349.27 209.59s-1.79-3.19-2.3-4.73c0 0-3.58 1.53-4.85 1.15s-4.98-6.26-4.98-6.26-.26.51.26-2.68c.51-3.19 0-7.41-3.19-6.51-3.19.89-6.64 7.92-6.64 7.92l-3.19.64s-1.02-3.45-1.66-4.98-3.96-2.43-4.85-3.07c-.89-.64-.26-7.41-.26-7.41l-2.94 2.43c-2.94 2.43-3.7 4.47-3.7 4.47s-.51 3.96.13 6.26 1.15 3.7 1.15 3.7-.38 1.15 0 1.66 1.28 1.15 1.02 1.92-1.41 8.43-.51 8.43c.89 0 2.04.51 2.04.51l.13 1.02s8.05 4.22 16.73 3.45 22.1-4.22 22.1-4.22l-4.49-3.7z"></path><linearGradient id="am" x1="332.407" x2="353.739" y1="207.871" y2="207.871" gradientUnits="userSpaceOnUse"><stop offset="0" stop-color="#a1baff"></stop><stop offset="1" stop-color="#fff"></stop></linearGradient><path fill="url(#am)" d="M334.96 203.08c-1.92 1.02-2.55.51-2.55.51l.38 5.88s4.34 6.64 5.49 6.51c.34-.04 2.85-.22 6.16-.54 5.16-1.08 9.3-2.14 9.3-2.14l-4.47-3.7s-1.79-3.19-2.3-4.73c0 0-3.58 1.53-4.85 1.15s-4.98-6.26-4.98-6.26-.26 2.3-2.18 3.32z"></path><linearGradient id="an" x1="296.322" x2="330.698" y1="351.26" y2="464.137" gradientUnits="userSpaceOnUse"><stop offset="0" stop-color="#270036"></stop><stop offset=".594" stop-color="#4f008b"></stop><stop offset="1" stop-color="#4c24b1"></stop></linearGradient><path fill="url(#an)" d="M299.66 328.47c-1.87 3.92-9.71 15.67-14.48 27.76-4.77 12.09-8.35 21.63-8.86 23.84-.51 2.21-2.04 31.85-3.92 45.64s-4.43 22.82-4.43 22.82 4.26 3.07 11.07 2.9c6.81-.17 10.22-3.24 10.22-3.24s3.75-12.6 4.94-19.25c1.19-6.64 3.75-15.16 4.43-24.18.68-9.03.68-11.41.68-11.41s1.53-5.62 2.55-9.88c1.02-4.26 1.53-5.96 1.53-5.96l8.35-12.77s8.9 30.06 14.26 39.9c5.36 9.84 5.75 8.3 9.2 18.01 3.45 9.71 9.07 25.93 10.22 27.72s2.3 2.17.89 3.83c-1.41 1.66-.89 9.07-.89 9.07s5.24 1.66 14.56 1.02c9.32-.64 9.71-3.58 9.71-3.58s-9.2-39.34-13.03-50.71c-3.83-11.37-7.92-18.65-9.2-20.57 0 0-3.07-3.32-3.7-5.75-.64-2.43-3.45-37.3-1.28-40.88 2.17-3.58 3.19-6.39 3.58-9.71s.32-7.76.32-7.76-11.16-.34-22.91-3.15-22.4-6.73-22.4-6.73.47 9.11-1.41 13.02z"></path><linearGradient id="ao" x1="327.951" x2="331.017" y1="196.43" y2="309.859" gradientUnits="userSpaceOnUse"><stop offset="0" stop-color="#270036"></stop><stop offset=".594" stop-color="#4f008b"></stop><stop offset="1" stop-color="#4c24b1"></stop></linearGradient><path fill="url(#ao)" d="M308.65 233.23s.89 15.07-1.41 25.55c-2.3 10.47-7.41 29.12-10.47 36.4-3.07 7.28-3.7 11.24-3.32 12.52s2.3 3.45 2.3 3.45.89 1.79 2.17 2.68c1.28.89 10.86 5.62 24.27 8.56s27.08 3.32 27.08 3.32-3.96-26.57-4.22-32.7c-.26-6.13.51-10.99 1.66-13.8 1.15-2.81 13.92-23.12 16.22-30.15 2.3-7.03 4.34-18.65 3.07-25.29-1.28-6.64-2.17-8.56-2.17-8.56l.51-6.39s-5.11 0-9.96.26-13.67 2.17-13.67 2.17-5.11-1.92-9.45-1.41-13.54 3.33-22.61 23.39z"></path><linearGradient id="ap" x1="311.136" x2="311.136" y1="288.479" y2="273.15" gradientUnits="userSpaceOnUse"><stop offset="0" stop-color="#270036"></stop><stop offset=".594" stop-color="#4f008b"></stop><stop offset="1" stop-color="#4c24b1"></stop></linearGradient><path fill="url(#ap)" d="M321.29 277.04s-16.18-6.81-16.69-6.47c-.51.34-4.09 7.32-3.58 8 .51.68 14.48 7.32 15.67 6.81 1.2-.51 4.6-8.34 4.6-8.34z"></path><linearGradient id="aq" x1="363.825" x2="286.161" y1="234.999" y2="201.277" gradientUnits="userSpaceOnUse"><stop offset="0" stop-color="#270036"></stop><stop offset=".594" stop-color="#4f008b"></stop><stop offset="1" stop-color="#4c24b1"></stop></linearGradient><path fill="url(#aq)" d="M329.6 243.57s-25.93-12.13-31.42-14.82c-5.49-2.68-23.63-13.8-24.4-16.73s-1.92-10.86-3.83-15.97c-1.92-5.11-4.98-10.09-4.98-10.09s6.9-7.92 11.24-9.84 8.3 1.28 8.3 1.28 1.53 13.67 4.22 19.03c2.68 5.36 3.58 7.92 3.58 7.92s9.45 5.88 17.5 8.3c8.05 2.43 11.24 1.53 11.24 1.53s8.18-4.6 15.07 1.53c6.9 6.13 6.9 10.6 6.9 10.6"></path><path fill="#fff" d="m284.17 177.15-.17-1.7s-3.07-2.04-6.81-1.19c-3.75.85-5.45 3.07-5.45 3.07v1.87s3.41-3.53 6.3-3.66c3.66-.18 6.13 1.61 6.13 1.61z"></path><linearGradient id="ar" x1="318.01" x2="350.199" y1="179.513" y2="205.06" gradientUnits="userSpaceOnUse"><stop offset="0" stop-color="#000036"></stop><stop offset=".738" stop-color="#38598b"></stop><stop offset="1" stop-color="#3893e0"></stop></linearGradient><path fill="url(#ar)" d="M310.95 190.56s.77-2.04 3.7-4.47l2.94-2.43s-.64 6.77.26 7.41c.89.64 4.22 1.53 4.85 3.07s1.66 4.98 1.66 4.98l3.19-.64s3.45-7.03 6.64-7.92c3.19-.89 3.7 3.32 3.19 6.51-.51 3.19-.26 2.68-.26 2.68s3.7 5.88 4.98 6.26 4.85-1.15 4.85-1.15-1.53-10.22-1.92-13.8c-.38-3.58-2.94-10.6-7.03-14.82-4.09-4.22-11.37-3.83-15.58-1.92-4.22 1.92-11.24 9.45-13.54 10.47s-4.47-1.28-4.47-1.28-1.51 7.43 6.54 7.05z"></path><linearGradient id="as" x1="350.845" x2="346.758" y1="460.978" y2="482.438" gradientUnits="userSpaceOnUse"><stop offset="0" stop-color="#270036"></stop><stop offset=".594" stop-color="#4f008b"></stop><stop offset="1" stop-color="#4c24b1"></stop></linearGradient><path fill="url(#as)" d="M346.2 463.66s-4.34 4.66-7.09 6.77c-2.75 2.11-5.56 3.19-6.71 3.39-1.15.19-3.19-.13-4.28.45-1.09.57-2.24 1.85-2.24 1.85l-.64.38-.32 1.28s1.34 2.87 4.47 4.02 15.07 1.72 19.22.89c4.15-.83 10.86-4.85 10.86-4.85l.83 2.04 10.03-2.04s.38-10.92 0-12.01c-.38-1.09-1.72-3.96-1.72-3.96s-2.68 2.3-10.41 2.36c-8.1.07-12-.57-12-.57z"></path><path d="M329.41 481.8c3.13 1.15 15.07 1.72 19.22.89 4.15-.83 10.86-4.85 10.86-4.85l.83 2.04 10.03-2.04s.1-2.75.14-5.63c-1.92.69-7.35 2.64-9.6 3.52-2.75 1.09-6.07 3.26-11.05 4.92-4.98 1.66-14.37.89-18.52.19s-6.07-4.34-6.07-4.34l-.32 1.28c0-.01 1.35 2.87 4.48 4.02z"></path><linearGradient id="at" x1="332.585" x2="276.893" y1="323.101" y2="418.136" gradientUnits="userSpaceOnUse"><stop offset="0" stop-color="#270036"></stop><stop offset=".594" stop-color="#4f008b"></stop><stop offset="1" stop-color="#4c24b1"></stop></linearGradient><path fill="url(#at)" d="M300.13 327.29c-.14.43-.29.83-.46 1.19-1.87 3.92-9.71 15.67-14.48 27.76-4.77 12.09-8.35 21.63-8.86 23.84-.51 2.21-2.04 31.85-3.92 45.64s-4.43 22.82-4.43 22.82 4.26 3.07 11.07 2.9c6.81-.17 10.22-3.24 10.22-3.24s3.75-12.6 4.94-19.25c1.19-6.64 3.75-15.16 4.43-24.18.68-9.03.68-11.41.68-11.41s1.53-5.62 2.55-9.88c1.02-4.26 1.53-5.96 1.53-5.96l8.35-12.77s-3.11-15.93-4.26-18.61-6.25-11.24-7.36-18.85z"></path><linearGradient id="au" x1="273.349" x2="267.773" y1="442.553" y2="466.852" gradientUnits="userSpaceOnUse"><stop offset="0" stop-color="#270036"></stop><stop offset=".594" stop-color="#4f008b"></stop><stop offset="1" stop-color="#4c24b1"></stop></linearGradient><path fill="url(#au)" d="M289.28 448.2s-3.41 3.07-10.22 3.24c-6.81.17-11.07-2.9-11.07-2.9s-5.96 5.79-7.66 6.3c-1.7.51-7.75 2.04-9.2 2.04-1.45 0-2.73.17-3.49.77s-.85 1.28-.85 1.28-.6.85-.77 1.62c-.17.77 1.02 3.49 4.85 3.92 3.83.43 12.35.68 14.82-.17 2.47-.85 5.02-1.7 7.58-1.79 2.55-.09 4.85-.26 4.85-.26l.17 2.13 13.37-.51s1.11-11.41.6-12.69c-.51-1.27-2.98-2.98-2.98-2.98z"></path><path d="M292.01 459.8c-3.52.35-8.26.79-10.23.84-3.32.09-11.58.68-15.67 1.53s-11.67 1.28-15.67.51c-2.49-.48-3.6-1.98-4.08-3.04-.14.28-.28.6-.35.91-.17.77 1.02 3.49 4.85 3.92 3.83.43 12.35.68 14.82-.17 2.47-.85 5.02-1.7 7.58-1.79 2.55-.09 4.85-.26 4.85-.26l.17 2.13 13.37-.51c.01 0 .19-1.81.36-4.07z"></path><linearGradient id="av" x1="313.684" x2="315.534" y1="167.286" y2="156.566" gradientUnits="userSpaceOnUse"><stop offset="0" stop-color="#311a36"></stop><stop offset="1" stop-color="#6f2c45"></stop></linearGradient><path fill="url(#av)" d="m250.78 155.26 125.56 23.8s2.36-2.65 2.49-4.57c.13-1.92-.83-4.63-.83-4.63l-125.31-25.8c.01.01-4.21 5.8-1.91 11.2z"></path><linearGradient id="aw" x1="332.961" x2="351.655" y1="175.148" y2="175.148" gradientUnits="userSpaceOnUse"><stop offset="0" stop-color="#a1baff"></stop><stop offset="1" stop-color="#fff"></stop></linearGradient><path fill="url(#aw)" d="M340.37 179.28s6.39-1.11 8.18-1.7 2.72-1.19 2.98-1.7.17-4.26-.6-4.51c-.77-.26-2.3 2.38-2.3 2.38l-14.9-2.73-.77 2.3s5.62 2.04 7.41 5.96z"></path><linearGradient id="ax" x1="340.71" x2="345.349" y1="163.349" y2="163.349" gradientUnits="userSpaceOnUse"><stop offset="0" stop-color="#a1baff"></stop><stop offset=".503" stop-color="#fff"></stop></linearGradient><path fill="url(#ax)" d="M340.71 161.99c.26 0 1.28-1.36 2.73-1.28 1.45.09 1.62 1.53 1.87 2.9.26 1.36-.77 2.72-1.53 2.3-.77-.43-1.45-3.41-1.45-3.41l-1.62-.51z"></path><linearGradient id="ay" x1="345.053" x2="348.599" y1="163.78" y2="163.78" gradientUnits="userSpaceOnUse"><stop offset="0" stop-color="#a1baff"></stop><stop offset=".503" stop-color="#fff"></stop></linearGradient><path fill="url(#ay)" d="M345.05 161.22s2.04-1.19 2.9-.51c.85.68.68 4.43.51 5.28-.17.85-1.28 1.45-1.96.77-.68-.68-1.19-3.66-1.19-3.66l-.26-1.88z"></path><linearGradient id="az" x1="352.377" x2="355.452" y1="165.16" y2="165.16" gradientUnits="userSpaceOnUse"><stop offset="0" stop-color="#a1baff"></stop><stop offset=".503" stop-color="#fff"></stop></linearGradient><path fill="url(#az)" d="M352.38 162.67s.09 4.17.51 4.77c.43.6 2.73 1.28 2.55-1.19s-.42-4.85-3.06-3.58z"></path><linearGradient id="aA" x1="348.545" x2="352.12" y1="164.234" y2="164.234" gradientUnits="userSpaceOnUse"><stop offset="0" stop-color="#a1baff"></stop><stop offset=".503" stop-color="#fff"></stop></linearGradient><path fill="url(#aA)" d="M348.54 161.57s1.87-.85 2.64-.26 1.11 1.02.85 2.64c-.26 1.62-1.19 3.32-1.7 3.41-.51.09-1.53-.17-1.62-2.47-.08-2.3-.17-3.32-.17-3.32z"></path><linearGradient id="aB" x1="377.007" x2="392.639" y1="171.733" y2="173.22" gradientUnits="userSpaceOnUse"><stop offset="0" stop-color="#271d60"></stop><stop offset=".385" stop-color="#c5d5ff"></stop><stop offset="1" stop-color="#2c4d54"></stop></linearGradient><path fill="url(#aB)" d="m376.35 179.07-2 15.54 1.62 1.19 10.65 1.19s4.34-25.89 4.17-27.59c-.17-1.7-1.7-20.86-1.7-20.86l-3.07-.17-7.83 18.99-.17 2.51c-.01 0 1.61 4.98-1.67 9.2z"></path><linearGradient id="aC" x1="312.082" x2="319.315" y1="200.029" y2="200.029" gradientUnits="userSpaceOnUse"><stop offset="0" stop-color="#270036"></stop><stop offset=".594" stop-color="#4f008b"></stop><stop offset="1" stop-color="#4c24b1"></stop></linearGradient><path fill="url(#aC)" d="M312.8 200.68s1.79-.89 2.81-1.53 1.15-1.79 2.43-1.02c1.28.77 1.28 2.04 1.28 2.04s-1.66-.77-2.94-.13-4.15 2.14-4.15 2.14-.58-1.5.57-1.5z"></path><linearGradient id="aD" x1="275.4" x2="295.763" y1="159.139" y2="166.429" gradientUnits="userSpaceOnUse"><stop offset="0" stop-color="#a1baff"></stop><stop offset=".433" stop-color="#fff"></stop></linearGradient><path fill="url(#aD)" d="M275.14 161.48c.6-2.38 5.28-7.83 5.62-9.28.34-1.45 1.11-3.66 1.53-3.75.43-.09 1.79-.77 1.87.6.08 1.36-.26 3.66-.26 3.66s1.62-3.92 2.21-4.43c.6-.51 2.47.09 2.47 1.11s-.26 2.04-.26 2.04.94-2.64 1.7-2.9c.77-.26 2.21-.09 2.21 1.36 0 1.45-.17 2.47-.17 2.47s1.79-2.04 2.81-1.87c1.02.17 1.53 1.45.94 3.92-.6 2.47-4.34 12.09-5.28 12.69-.94.6-6.9 3.49-6.81 4.17.09.68.26 4.17.26 4.17s-2.99-1.29-5.45-1.36c-3.07-.09-4.09 1.02-4.09 1.02s.1-11.24.7-13.62z"></path></svg>