<svg xmlns="http://www.w3.org/2000/svg" fill="none" viewBox="0 0 96 96" id="PuzzlePiece"><path stroke="url(#paint0_linear_1208_4817)" stroke-linecap="round" stroke-linejoin="round" stroke-width="5" d="M30.45 18.75C30.45 13.3652 34.8152 9 40.2 9C45.5848 9 49.95 13.3652 49.95 18.75V24.6H53.85C59.3015 24.6 62.0273 24.6 64.1774 25.4906C67.0442 26.6781 69.3219 28.9558 70.5094 31.8226C71.4 33.9727 71.4 36.6985 71.4 42.15H77.25C82.6348 42.15 87 46.5152 87 51.9C87 57.2848 82.6348 61.65 77.25 61.65H71.4V68.28C71.4 74.8326 71.4 78.1089 70.1248 80.6117C69.0031 82.8132 67.2132 84.6031 65.0117 85.7248C62.5089 87 59.2326 87 52.68 87H49.95V80.175C49.95 75.3287 46.0213 71.4 41.175 71.4C36.3287 71.4 32.4 75.3287 32.4 80.175V87H27.72C21.1674 87 17.8911 87 15.3883 85.7248C13.1868 84.6031 11.3969 82.8132 10.2752 80.6117C9 78.1089 9 74.8326 9 68.28V63.65H14.85C20.2348 63.65 24.6 59.2848 24.6 53.9C24.6 48.5152 20.2348 44.15 14.85 44.15H9C9 38.6985 9 33.9727 9.89061 31.8226C11.0781 28.9558 13.3558 26.6781 16.2226 25.4906C18.3727 24.6 21.0985 24.6 26.55 24.6H30.45V18.75Z"></path><defs><linearGradient id="paint0_linear_1208_4817" x1="48" x2="48" y1="9" y2="87" gradientUnits="userSpaceOnUse"><stop stop-color="#9e00e8" class="stopColorff1f00 svgShape"></stop><stop offset="1" stop-color="#6dffe0" class="stopColorff8a00 svgShape"></stop></linearGradient></defs></svg>